<svg viewBox="0 0 720 200" width="720" height="200" xmlns="http://www.w3.org/2000/svg">
  <style>
    /* Weft shuttle lines — alternating left/right dash movement */
    @keyframes weft-r { to { stroke-dashoffset: -36; } }
    @keyframes weft-l { to { stroke-dashoffset: 36; } }
    @keyframes weft-r2 { to { stroke-dashoffset: -48; } }
    @keyframes weft-l2 { to { stroke-dashoffset: 32; } }
    @keyframes weft-r3 { to { stroke-dashoffset: -30; } }
    @keyframes weft-l3 { to { stroke-dashoffset: 24; } }

    .w1 { animation: weft-r 2.0s linear infinite; }
    .w2 { animation: weft-l 2.8s linear infinite; }
    .w3 { animation: weft-r2 2.4s linear infinite; }
    .w4 { animation: weft-l 3.2s linear infinite; }
    .w5 { animation: weft-r3 1.8s linear infinite; }
    .w6 { animation: weft-l 3.6s linear infinite; }
    .w7 { animation: weft-r2 3.0s linear infinite; }
    .w8 { animation: weft-l2 2.2s linear infinite; }
    .w9 { animation: weft-r2 3.6s linear infinite; }
    .w10 { animation: weft-l2 2.6s linear infinite; }
    .w11 { animation: weft-r2 2.0s linear infinite; }
    .w12 { animation: weft-l3 1.6s linear infinite; }

    /* Node pulse */
    @keyframes pulse { 0%,100% { opacity: 0.08; } 50% { opacity: 0.40; } }
    .n1 { animation: pulse 0.9s ease-in-out infinite; }
    .n2 { animation: pulse 1.0s ease-in-out 0.4s infinite; }
    .n3 { animation: pulse 1.0s ease-in-out 0.1s infinite; }
    .n4 { animation: pulse 0.9s ease-in-out 0.6s infinite; }
    .n5 { animation: pulse 0.8s ease-in-out 0.2s infinite; }
    .n6 { animation: pulse 1.1s ease-in-out 0.8s infinite; }
    .n7 { animation: pulse 0.7s ease-in-out 0.2s infinite; }
    .n8 { animation: pulse 1.0s ease-in-out 0.5s infinite; }
    .n9 { animation: pulse 1.1s ease-in-out 0.9s infinite; }
    .n10 { animation: pulse 0.8s ease-in-out 0.3s infinite; }
    .n11 { animation: pulse 1.0s ease-in-out 0.7s infinite; }
    .n12 { animation: pulse 0.9s ease-in-out 0.1s infinite; }
    .n13 { animation: pulse 1.1s ease-in-out 0.6s infinite; }
    .n14 { animation: pulse 0.8s ease-in-out 0.3s infinite; }
    .n15 { animation: pulse 1.1s ease-in-out 0.8s infinite; }
    .n16 { animation: pulse 1.0s ease-in-out 0.1s infinite; }
    .n17 { animation: pulse 0.9s ease-in-out 0.6s infinite; }
    .n18 { animation: pulse 0.8s ease-in-out 0.4s infinite; }
    .n19 { animation: pulse 1.1s ease-in-out 0.9s infinite; }
    .n20 { animation: pulse 0.9s ease-in-out 0.4s infinite; }
    .n21 { animation: pulse 1.0s ease-in-out 0.7s infinite; }

    /* Ambient glow drift */
    @keyframes glow-drift { 0%,100% { opacity: 0.03; } 50% { opacity: 0.06; } }
    .glow { animation: glow-drift 4s ease-in-out infinite; }
  </style>

  <defs>
    <linearGradient id="ag" gradientUnits="userSpaceOnUse" x1="320" y1="96" x2="480" y2="56">
      <stop offset="0%" stop-color="#7ee787"/>
      <stop offset="50%" stop-color="#a5d6ff"/>
      <stop offset="100%" stop-color="#d2a8ff"/>
    </linearGradient>
    <radialGradient id="glow" cx="0.4" cy="0.5" r="0.4">
      <stop offset="0%" stop-color="#a5d6ff" stop-opacity="1"/>
      <stop offset="100%" stop-color="#a5d6ff" stop-opacity="0"/>
    </radialGradient>
  </defs>

  <!-- Background -->
  <rect x="0" y="0" width="720" height="200" fill="#0d1117"/>

  <!-- Ambient glow -->
  <rect x="0" y="0" width="720" height="200" fill="url(#glow)" class="glow"/>

  <!-- Warp grid (vertical threads) -->
  <g opacity="0.12" stroke="#e6edf3" stroke-width="1">
    <line x1="160" y1="0" x2="160" y2="200"/><line x1="180" y1="0" x2="180" y2="200"/>
    <line x1="200" y1="0" x2="200" y2="200"/><line x1="220" y1="0" x2="220" y2="200"/>
    <line x1="240" y1="0" x2="240" y2="200"/><line x1="260" y1="0" x2="260" y2="200"/>
    <line x1="280" y1="0" x2="280" y2="200"/><line x1="300" y1="0" x2="300" y2="200"/>
    <line x1="320" y1="0" x2="320" y2="200"/><line x1="340" y1="0" x2="340" y2="200"/>
    <line x1="360" y1="0" x2="360" y2="200"/><line x1="380" y1="0" x2="380" y2="200"/>
    <line x1="400" y1="0" x2="400" y2="200"/><line x1="420" y1="0" x2="420" y2="200"/>
    <line x1="440" y1="0" x2="440" y2="200"/><line x1="460" y1="0" x2="460" y2="200"/>
    <line x1="480" y1="0" x2="480" y2="200"/><line x1="500" y1="0" x2="500" y2="200"/>
    <line x1="520" y1="0" x2="520" y2="200"/><line x1="540" y1="0" x2="540" y2="200"/>
    <line x1="560" y1="0" x2="560" y2="200"/>
  </g>

  <!-- Weft shuttle lines (CSS-animated dashes) -->
  <line class="w1" x1="100" y1="10" x2="620" y2="10" stroke="#7ee787" stroke-width="1.5" stroke-linecap="round" stroke-dasharray="6 30" opacity="0.30"/>
  <line class="w2" x1="80" y1="22" x2="640" y2="22" stroke="#a5d6ff" stroke-width="1.5" stroke-linecap="round" stroke-dasharray="12 24" opacity="0.25"/>
  <line class="w3" x1="110" y1="35" x2="610" y2="35" stroke="#d2a8ff" stroke-width="1.5" stroke-linecap="round" stroke-dasharray="4 12 8 24" opacity="0.30"/>
  <line class="w4" x1="80" y1="48" x2="640" y2="48" stroke="#7ee787" stroke-width="1.5" stroke-linecap="round" stroke-dasharray="8 28" opacity="0.25"/>
  <line class="w5" x1="100" y1="60" x2="620" y2="60" stroke="#a5d6ff" stroke-width="1.5" stroke-linecap="round" stroke-dasharray="5 25" opacity="0.28"/>
  <line class="w6" x1="150" y1="72" x2="570" y2="72" stroke="#d2a8ff" stroke-width="1" stroke-linecap="round" stroke-dasharray="6 30" opacity="0.12"/>
  <line class="w7" x1="150" y1="130" x2="570" y2="130" stroke="#7ee787" stroke-width="1" stroke-linecap="round" stroke-dasharray="3 15 10 20" opacity="0.12"/>
  <line class="w8" x1="100" y1="142" x2="620" y2="142" stroke="#a5d6ff" stroke-width="1.5" stroke-linecap="round" stroke-dasharray="10 22" opacity="0.28"/>
  <line class="w9" x1="110" y1="155" x2="610" y2="155" stroke="#d2a8ff" stroke-width="1.5" stroke-linecap="round" stroke-dasharray="14 34" opacity="0.30"/>
  <line class="w10" x1="80" y1="168" x2="640" y2="168" stroke="#7ee787" stroke-width="1.5" stroke-linecap="round" stroke-dasharray="8 24" opacity="0.25"/>
  <line class="w11" x1="100" y1="180" x2="620" y2="180" stroke="#a5d6ff" stroke-width="1.5" stroke-linecap="round" stroke-dasharray="6 18 3 21" opacity="0.30"/>
  <line class="w12" x1="110" y1="192" x2="610" y2="192" stroke="#d2a8ff" stroke-width="1.5" stroke-linecap="round" stroke-dasharray="4 20" opacity="0.25"/>

  <!-- Intersection nodes (CSS-animated pulse) -->
  <path class="n1" d="M200,7.5 L202.5,10 L200,12.5 L197.5,10Z" fill="#7ee787"/>
  <path class="n2" d="M400,7.5 L402.5,10 L400,12.5 L397.5,10Z" fill="#7ee787"/>
  <circle class="n3" cx="260" cy="22" r="2" fill="#a5d6ff"/>
  <circle class="n4" cx="480" cy="22" r="2" fill="#a5d6ff"/>
  <path class="n5" d="M180,32.5 L182.5,35 L180,37.5 L177.5,35Z" fill="#d2a8ff"/>
  <path class="n6" d="M360,32.5 L362.5,35 L360,37.5 L357.5,35Z" fill="#d2a8ff"/>
  <path class="n7" d="M520,32.5 L522.5,35 L520,37.5 L517.5,35Z" fill="#d2a8ff"/>
  <circle class="n8" cx="300" cy="48" r="2" fill="#7ee787"/>
  <circle class="n9" cx="500" cy="48" r="2" fill="#7ee787"/>
  <path class="n10" d="M220,57.5 L222.5,60 L220,62.5 L217.5,60Z" fill="#a5d6ff"/>
  <path class="n11" d="M440,57.5 L442.5,60 L440,62.5 L437.5,60Z" fill="#a5d6ff"/>
  <circle class="n12" cx="240" cy="142" r="2" fill="#a5d6ff"/>
  <circle class="n13" cx="460" cy="142" r="2" fill="#a5d6ff"/>
  <path class="n14" d="M320,152.5 L322.5,155 L320,157.5 L317.5,155Z" fill="#d2a8ff"/>
  <path class="n15" d="M540,152.5 L542.5,155 L540,157.5 L537.5,155Z" fill="#d2a8ff"/>
  <circle class="n16" cx="200" cy="168" r="2" fill="#7ee787"/>
  <circle class="n17" cx="420" cy="168" r="2" fill="#7ee787"/>
  <path class="n18" d="M280,177.5 L282.5,180 L280,182.5 L277.5,180Z" fill="#a5d6ff"/>
  <path class="n19" d="M500,177.5 L502.5,180 L500,182.5 L497.5,180Z" fill="#a5d6ff"/>
  <circle class="n20" cx="340" cy="192" r="2" fill="#d2a8ff"/>
  <circle class="n21" cx="520" cy="192" r="2" fill="#d2a8ff"/>


  <!-- Title: "Open" (Courier Bold, paths) -->
  <g fill="#e6edf3">
    <path transform="translate(244.8,92.0) scale(0.023438,-0.023438)" d="M614 987Q485 987 411.5 883.0Q338 779 338 594Q338 409 412.0 304.0Q486 199 614 199Q743 199 817.0 303.5Q891 408 891 594Q891 779 817.5 883.0Q744 987 614 987ZM614 1219Q860 1219 1019.0 1043.0Q1178 867 1178 594Q1178 319 1020.0 144.0Q862 -31 614 -31Q369 -31 209.0 145.5Q49 322 49 594Q49 868 207.5 1043.5Q366 1219 614 1219Z"/>
    <path transform="translate(273.6,92.0) scale(0.023438,-0.023438)" d="M424 94V-178H551Q619 -178 648.5 -204.0Q678 -230 678 -289Q678 -347 649.0 -372.0Q620 -397 551 -397H127Q58 -397 30.0 -372.5Q2 -348 2 -289Q2 -230 30.5 -204.0Q59 -178 127 -178H186V705H170Q117 705 89.0 733.0Q61 761 61 815Q61 874 89.0 899.0Q117 924 186 924H340Q369 924 383.0 913.5Q397 903 397 883V811Q448 879 520.5 913.5Q593 948 684 948Q889 948 1024.0 817.0Q1159 686 1159 487Q1159 279 1028.0 142.5Q897 6 698 6Q617 6 546.5 28.5Q476 51 424 94ZM655 735Q556 735 492.0 662.0Q428 589 428 475Q428 361 492.0 288.0Q556 215 655 215Q754 215 818.5 288.5Q883 362 883 475Q883 589 819.0 662.0Q755 735 655 735Z"/>
    <path transform="translate(302.4,92.0) scale(0.023438,-0.023438)" d="M342 403Q368 292 442.5 237.0Q517 182 641 182Q765 182 886.0 242.5Q1007 303 1032 303Q1069 303 1092.5 275.5Q1116 248 1116 205Q1116 111 977.0 43.0Q838 -25 633 -25Q391 -25 239.5 111.0Q88 247 88 461Q88 674 239.5 810.0Q391 946 633 946Q849 946 991.0 818.5Q1133 691 1133 506Q1133 447 1104.5 425.0Q1076 403 987 403ZM881 559Q864 652 793.5 703.0Q723 754 610 754Q501 754 434.5 705.5Q368 657 342 559Z"/>
    <path transform="translate(331.2,92.0) scale(0.023438,-0.023438)" d="M1034 221H1047Q1103 221 1131.0 193.5Q1159 166 1159 111Q1159 52 1130.5 26.0Q1102 0 1034 0H788Q721 0 691.5 26.0Q662 52 662 111Q662 166 690.5 193.5Q719 221 776 221H788V510Q788 630 754.5 680.5Q721 731 643 731Q560 731 507.5 670.5Q455 610 455 510V221H467Q524 221 552.0 193.5Q580 166 580 111Q580 52 551.0 26.0Q522 0 455 0H207Q140 0 111.0 26.0Q82 52 82 111Q82 166 110.0 193.5Q138 221 195 221H207V705H190Q136 705 108.0 732.5Q80 760 80 813Q80 872 109.0 898.0Q138 924 207 924H377Q405 924 419.5 913.0Q434 902 434 881V803Q480 875 551.5 911.5Q623 948 717 948Q877 948 955.5 851.0Q1034 754 1034 555Z"/>
  </g>

  <!-- Title: "Weft" (Courier Bold, gradient paths) -->
  <g fill="url(#ag)">
    <path transform="translate(360.0,92.0) scale(0.023438,-0.023438)" d="M326 965 362 379 485 811Q499 859 531.0 883.0Q563 907 614 907Q665 907 695.5 884.0Q726 861 741 811L866 379L901 965H874Q816 965 788.0 992.0Q760 1019 760 1075Q760 1135 788.0 1160.5Q816 1186 885 1186H1126Q1194 1186 1222.5 1160.0Q1251 1134 1251 1075Q1251 1021 1223.5 993.0Q1196 965 1143 965H1126L1030 84Q1025 32 1010.0 16.0Q995 0 940 0H893Q851 0 831.5 15.5Q812 31 793 96L610 690L434 96Q416 33 396.5 16.5Q377 0 334 0H287Q233 0 218.5 15.5Q204 31 199 84L100 965H84Q31 965 3.0 993.0Q-25 1021 -25 1075Q-25 1134 4.0 1160.0Q33 1186 100 1186H342Q410 1186 438.5 1160.0Q467 1134 467 1075Q467 1019 439.0 992.0Q411 965 352 965Z"/>
    <path transform="translate(388.8,92.0) scale(0.023438,-0.023438)" d="M342 403Q368 292 442.5 237.0Q517 182 641 182Q765 182 886.0 242.5Q1007 303 1032 303Q1069 303 1092.5 275.5Q1116 248 1116 205Q1116 111 977.0 43.0Q838 -25 633 -25Q391 -25 239.5 111.0Q88 247 88 461Q88 674 239.5 810.0Q391 946 633 946Q849 946 991.0 818.5Q1133 691 1133 506Q1133 447 1104.5 425.0Q1076 403 987 403ZM881 559Q864 652 793.5 703.0Q723 754 610 754Q501 754 434.5 705.5Q368 657 342 559Z"/>
    <path transform="translate(417.6,92.0) scale(0.023438,-0.023438)" d="M678 895H893Q962 895 991.0 869.5Q1020 844 1020 786Q1020 728 990.5 702.0Q961 676 893 676H678V219H877Q946 219 975.0 194.0Q1004 169 1004 111Q1004 52 974.5 26.0Q945 0 877 0H326Q257 0 228.0 26.0Q199 52 199 111Q199 169 227.5 194.0Q256 219 326 219H432V676H326Q257 676 228.0 702.0Q199 728 199 786Q199 845 227.5 870.0Q256 895 326 895H432V952Q432 1148 533.0 1230.5Q634 1313 877 1313Q1003 1313 1062.5 1283.0Q1122 1253 1122 1190Q1122 1148 1095.5 1123.0Q1069 1098 1024 1098Q991 1098 930.5 1107.0Q870 1116 846 1116Q753 1116 715.5 1074.5Q678 1033 678 928Z"/>
    <path transform="translate(446.4,92.0) scale(0.023438,-0.023438)" d="M545 868H850Q919 868 948.0 843.0Q977 818 977 760Q977 701 947.5 675.0Q918 649 850 649H545V393Q545 285 578.0 245.0Q611 205 694 205Q772 205 878.0 250.0Q984 295 1020 295Q1061 295 1090.5 262.5Q1120 230 1120 184Q1120 107 980.5 43.5Q841 -20 664 -20Q561 -20 483.0 8.0Q405 36 360 88Q327 128 313.0 184.0Q299 240 299 371V393V649H205Q137 649 108.5 675.0Q80 701 80 760Q80 819 108.0 843.5Q136 868 205 868H299V1102Q299 1171 327.5 1199.0Q356 1227 422 1227Q488 1227 516.5 1199.0Q545 1171 545 1102Z"/>
  </g>

  <!-- Subtitle (Courier Bold, paths) -->
  <g fill="#7d8590">
    <path transform="translate(202.5,122.0) scale(0.007324,-0.007324)" d="M911 975H446V719H621V731Q621 787 646.5 815.5Q672 844 723 844Q768 844 796.5 818.5Q825 793 825 754V719V512Q825 445 801.0 416.0Q777 387 723 387Q672 387 646.5 413.5Q621 440 621 494V512H446V219H502Q568 219 596.5 193.5Q625 168 625 111Q625 52 596.0 26.0Q567 0 502 0H203Q138 0 109.0 26.0Q80 52 80 111Q80 164 107.0 191.5Q134 219 186 219H203V965H186Q135 965 107.5 993.5Q80 1022 80 1075Q80 1133 109.5 1159.5Q139 1186 203 1186H1022Q1083 1186 1104.5 1167.5Q1126 1149 1126 1094V870Q1126 803 1100.5 773.0Q1075 743 1018 743Q961 743 936.0 772.5Q911 802 911 870Z"/>
    <path transform="translate(211.5,122.0) scale(0.007324,-0.007324)" d="M743 965V219H911Q979 219 1008.5 193.5Q1038 168 1038 111Q1038 53 1008.0 26.5Q978 0 911 0H317Q249 0 219.5 26.0Q190 52 190 111Q190 169 219.0 194.0Q248 219 317 219H485V965H317Q249 965 219.5 991.0Q190 1017 190 1075Q190 1134 219.0 1159.0Q248 1184 317 1184H911Q982 1184 1010.0 1159.0Q1038 1134 1038 1075Q1038 1017 1009.0 991.0Q980 965 911 965Z"/>
    <path transform="translate(220.5,122.0) scale(0.007324,-0.007324)" d="M864 545Q890 529 915 487Q919 481 922 477L1085 219H1096H1116Q1174 219 1203.5 192.0Q1233 165 1233 111Q1233 52 1203.5 26.0Q1174 0 1106 0H983Q915 0 877 59L874 61L629 438Q615 460 597.0 471.5Q579 483 559 483H465V219H481Q535 219 562.5 191.5Q590 164 590 111Q590 52 561.5 26.0Q533 0 465 0H207Q140 0 111.0 26.0Q82 52 82 111Q82 164 109.5 191.5Q137 219 190 219H207V965H190Q138 965 110.0 993.5Q82 1022 82 1075Q82 1133 111.5 1159.5Q141 1186 207 1186H668Q880 1186 989.0 1103.5Q1098 1021 1098 860Q1098 748 1037.5 666.0Q977 584 864 545ZM453 971V688H588Q713 688 763.0 720.5Q813 753 813 829Q813 904 767.5 937.5Q722 971 621 971Z"/>
    <path transform="translate(229.5,122.0) scale(0.007324,-0.007324)" d="M901 975H436V719H612V731Q612 788 637.0 816.0Q662 844 713 844Q758 844 786.5 818.5Q815 793 815 754Q815 752 816.0 741.0Q817 730 817 719V512Q817 445 793.0 416.0Q769 387 715 387Q664 387 638.0 414.0Q612 441 612 494V512H436V213H901V332Q901 399 926.5 428.0Q952 457 1010 457Q1067 457 1091.5 428.5Q1116 400 1116 332V90Q1116 36 1095.0 18.0Q1074 0 1012 0H193Q127 0 98.5 26.0Q70 52 70 111Q70 164 97.0 191.5Q124 219 176 219H193V965H176Q125 965 97.5 993.5Q70 1022 70 1075Q70 1133 99.0 1159.5Q128 1186 193 1186H1012Q1073 1186 1094.5 1167.5Q1116 1149 1116 1094V870Q1116 802 1091.0 772.5Q1066 743 1010 743Q952 743 926.5 773.0Q901 803 901 870Z"/>
    <path transform="translate(238.5,122.0) scale(0.007324,-0.007324)" d="M197 575H1026Q1050 575 1062.5 563.0Q1075 551 1075 528V403Q1075 382 1059.5 365.0Q1044 348 1026 348H197Q177 348 165.5 363.0Q154 378 154 403V528Q154 549 166.0 562.0Q178 575 197 575Z"/>
    <path transform="translate(247.5,122.0) scale(0.007324,-0.007324)" d="M1118 219H1135Q1189 219 1217.0 191.5Q1245 164 1245 111Q1245 52 1215.5 26.0Q1186 0 1118 0H817Q748 0 719.0 25.5Q690 51 690 111Q690 169 719.0 194.0Q748 219 817 219H852L811 336H379L336 219H371Q439 219 468.5 193.5Q498 168 498 111Q498 52 468.5 26.0Q439 0 371 0H113Q44 0 15.0 26.0Q-14 52 -14 111Q-14 164 14.0 191.5Q42 219 96 219H113L381 965H301Q233 965 203.5 991.0Q174 1017 174 1075Q174 1134 203.5 1160.0Q233 1186 301 1186H676Q765 1186 801 1090V1087ZM594 965 449 543H739Z"/>
    <path transform="translate(256.5,122.0) scale(0.007324,-0.007324)" d="M846 414V965H791Q725 965 696.5 991.0Q668 1017 668 1075Q668 1133 696.5 1159.5Q725 1186 791 1186H1075Q1140 1186 1169.0 1159.5Q1198 1133 1198 1075Q1198 1022 1170.5 993.5Q1143 965 1092 965H1075V57Q1075 10 1065.0 -2.0Q1055 -14 1020 -14H920Q872 -14 852.5 -4.0Q833 6 819 31L403 762V219H461Q526 219 554.0 194.0Q582 169 582 111Q582 52 553.5 26.0Q525 0 461 0H174Q109 0 80.0 26.0Q51 52 51 111Q51 164 78.0 191.5Q105 219 158 219H174V965H158Q107 965 79.0 993.5Q51 1022 51 1075Q51 1133 80.5 1159.5Q110 1186 174 1186H338Q397 1186 418.0 1170.5Q439 1155 465 1108Z"/>
    <path transform="translate(265.5,122.0) scale(0.007324,-0.007324)" d="M193 219V965H176Q122 965 94.0 993.0Q66 1021 66 1075Q66 1133 96.0 1159.5Q126 1186 193 1186H381H440Q649 1186 746.0 1168.0Q843 1150 911 1108Q1032 1036 1096.5 902.5Q1161 769 1161 594Q1161 409 1087.5 270.5Q1014 132 879 61Q818 29 736.0 14.5Q654 0 492 0H381H193Q124 0 95.0 25.5Q66 51 66 111Q66 164 94.0 191.5Q122 219 176 219ZM451 969V219H508Q697 219 787.0 311.5Q877 404 877 596Q877 785 785.5 878.0Q694 971 510 971Q486 971 473.5 970.5Q461 970 451 969Z"/>
    <path transform="translate(274.5,122.0) scale(0.007324,-0.007324)" d="M197 575H1026Q1050 575 1062.5 563.0Q1075 551 1075 528V403Q1075 382 1059.5 365.0Q1044 348 1026 348H197Q177 348 165.5 363.0Q154 378 154 403V528Q154 549 166.0 562.0Q178 575 197 575Z"/>
    <path transform="translate(283.5,122.0) scale(0.007324,-0.007324)" d="M911 975H446V719H621V731Q621 787 646.5 815.5Q672 844 723 844Q768 844 796.5 818.5Q825 793 825 754V719V512Q825 445 801.0 416.0Q777 387 723 387Q672 387 646.5 413.5Q621 440 621 494V512H446V219H502Q568 219 596.5 193.5Q625 168 625 111Q625 52 596.0 26.0Q567 0 502 0H203Q138 0 109.0 26.0Q80 52 80 111Q80 164 107.0 191.5Q134 219 186 219H203V965H186Q135 965 107.5 993.5Q80 1022 80 1075Q80 1133 109.5 1159.5Q139 1186 203 1186H1022Q1083 1186 1104.5 1167.5Q1126 1149 1126 1094V870Q1126 803 1100.5 773.0Q1075 743 1018 743Q961 743 936.0 772.5Q911 802 911 870Z"/>
    <path transform="translate(292.5,122.0) scale(0.007324,-0.007324)" d="M614 987Q485 987 411.5 883.0Q338 779 338 594Q338 409 412.0 304.0Q486 199 614 199Q743 199 817.0 303.5Q891 408 891 594Q891 779 817.5 883.0Q744 987 614 987ZM614 1219Q860 1219 1019.0 1043.0Q1178 867 1178 594Q1178 319 1020.0 144.0Q862 -31 614 -31Q369 -31 209.0 145.5Q49 322 49 594Q49 868 207.5 1043.5Q366 1219 614 1219Z"/>
    <path transform="translate(301.5,122.0) scale(0.007324,-0.007324)" d="M864 545Q890 529 915 487Q919 481 922 477L1085 219H1096H1116Q1174 219 1203.5 192.0Q1233 165 1233 111Q1233 52 1203.5 26.0Q1174 0 1106 0H983Q915 0 877 59L874 61L629 438Q615 460 597.0 471.5Q579 483 559 483H465V219H481Q535 219 562.5 191.5Q590 164 590 111Q590 52 561.5 26.0Q533 0 465 0H207Q140 0 111.0 26.0Q82 52 82 111Q82 164 109.5 191.5Q137 219 190 219H207V965H190Q138 965 110.0 993.5Q82 1022 82 1075Q82 1133 111.5 1159.5Q141 1186 207 1186H668Q880 1186 989.0 1103.5Q1098 1021 1098 860Q1098 748 1037.5 666.0Q977 584 864 545ZM453 971V688H588Q713 688 763.0 720.5Q813 753 813 829Q813 904 767.5 937.5Q722 971 621 971Z"/>
    <path transform="translate(310.5,122.0) scale(0.007324,-0.007324)" d="M918 1153Q937 1189 958.5 1204.0Q980 1219 1012 1219Q1061 1219 1081.5 1193.0Q1102 1167 1102 1104L1104 844Q1104 775 1081.5 751.0Q1059 727 999 727Q957 727 933.5 747.5Q910 768 895 821Q868 917 812.0 958.0Q756 999 655 999Q501 999 419.5 895.0Q338 791 338 594Q338 397 423.5 289.5Q509 182 666 182Q702 182 748.0 190.5Q794 199 856 217V375H743Q675 375 646.5 400.0Q618 425 618 483Q618 543 646.5 568.5Q675 594 743 594H1104Q1174 594 1202.5 569.0Q1231 544 1231 485Q1231 432 1202.5 403.5Q1174 375 1120 375H1104V137V125Q1104 93 1097.0 80.5Q1090 68 1069 55Q1012 21 888.0 -5.0Q764 -31 637 -31Q375 -31 213.0 142.0Q51 315 51 594Q51 863 215.0 1041.0Q379 1219 631 1219Q701 1219 770.5 1203.0Q840 1187 918 1153Z"/>
    <path transform="translate(319.5,122.0) scale(0.007324,-0.007324)" d="M901 975H436V719H612V731Q612 788 637.0 816.0Q662 844 713 844Q758 844 786.5 818.5Q815 793 815 754Q815 752 816.0 741.0Q817 730 817 719V512Q817 445 793.0 416.0Q769 387 715 387Q664 387 638.0 414.0Q612 441 612 494V512H436V213H901V332Q901 399 926.5 428.0Q952 457 1010 457Q1067 457 1091.5 428.5Q1116 400 1116 332V90Q1116 36 1095.0 18.0Q1074 0 1012 0H193Q127 0 98.5 26.0Q70 52 70 111Q70 164 97.0 191.5Q124 219 176 219H193V965H176Q125 965 97.5 993.5Q70 1022 70 1075Q70 1133 99.0 1159.5Q128 1186 193 1186H1012Q1073 1186 1094.5 1167.5Q1116 1149 1116 1094V870Q1116 802 1091.0 772.5Q1066 743 1010 743Q952 743 926.5 773.0Q901 803 901 870Z"/>
    <path transform="translate(328.5,122.0) scale(0.007324,-0.007324)" d="M952 967H743V221H911Q978 221 1007.0 195.0Q1036 169 1036 111Q1036 52 1007.0 26.0Q978 0 911 0H317Q251 0 222.0 26.0Q193 52 193 111Q193 170 221.5 195.5Q250 221 317 221H485V967H276L270 764V739Q270 691 243.5 664.0Q217 637 170 637Q114 637 87.5 665.5Q61 694 61 756V764L72 1063Q75 1152 96.5 1170.0Q118 1188 184 1188H1044Q1110 1188 1131.5 1170.0Q1153 1152 1157 1063L1167 764V756Q1167 693 1142.0 665.0Q1117 637 1061 637Q1007 637 983.5 664.5Q960 692 958 764Z"/>
    <path transform="translate(346.5,122.0) scale(0.007324,-0.007324)" d="M1118 219H1135Q1189 219 1217.0 191.5Q1245 164 1245 111Q1245 52 1215.5 26.0Q1186 0 1118 0H817Q748 0 719.0 25.5Q690 51 690 111Q690 169 719.0 194.0Q748 219 817 219H852L811 336H379L336 219H371Q439 219 468.5 193.5Q498 168 498 111Q498 52 468.5 26.0Q439 0 371 0H113Q44 0 15.0 26.0Q-14 52 -14 111Q-14 164 14.0 191.5Q42 219 96 219H113L381 965H301Q233 965 203.5 991.0Q174 1017 174 1075Q174 1134 203.5 1160.0Q233 1186 301 1186H676Q765 1186 801 1090V1087ZM594 965 449 543H739Z"/>
    <path transform="translate(355.5,122.0) scale(0.007324,-0.007324)" d="M918 1153Q937 1189 958.5 1204.0Q980 1219 1012 1219Q1061 1219 1081.5 1193.0Q1102 1167 1102 1104L1104 844Q1104 775 1081.5 751.0Q1059 727 999 727Q957 727 933.5 747.5Q910 768 895 821Q868 917 812.0 958.0Q756 999 655 999Q501 999 419.5 895.0Q338 791 338 594Q338 397 423.5 289.5Q509 182 666 182Q702 182 748.0 190.5Q794 199 856 217V375H743Q675 375 646.5 400.0Q618 425 618 483Q618 543 646.5 568.5Q675 594 743 594H1104Q1174 594 1202.5 569.0Q1231 544 1231 485Q1231 432 1202.5 403.5Q1174 375 1120 375H1104V137V125Q1104 93 1097.0 80.5Q1090 68 1069 55Q1012 21 888.0 -5.0Q764 -31 637 -31Q375 -31 213.0 142.0Q51 315 51 594Q51 863 215.0 1041.0Q379 1219 631 1219Q701 1219 770.5 1203.0Q840 1187 918 1153Z"/>
    <path transform="translate(364.5,122.0) scale(0.007324,-0.007324)" d="M901 975H436V719H612V731Q612 788 637.0 816.0Q662 844 713 844Q758 844 786.5 818.5Q815 793 815 754Q815 752 816.0 741.0Q817 730 817 719V512Q817 445 793.0 416.0Q769 387 715 387Q664 387 638.0 414.0Q612 441 612 494V512H436V213H901V332Q901 399 926.5 428.0Q952 457 1010 457Q1067 457 1091.5 428.5Q1116 400 1116 332V90Q1116 36 1095.0 18.0Q1074 0 1012 0H193Q127 0 98.5 26.0Q70 52 70 111Q70 164 97.0 191.5Q124 219 176 219H193V965H176Q125 965 97.5 993.5Q70 1022 70 1075Q70 1133 99.0 1159.5Q128 1186 193 1186H1012Q1073 1186 1094.5 1167.5Q1116 1149 1116 1094V870Q1116 802 1091.0 772.5Q1066 743 1010 743Q952 743 926.5 773.0Q901 803 901 870Z"/>
    <path transform="translate(373.5,122.0) scale(0.007324,-0.007324)" d="M846 414V965H791Q725 965 696.5 991.0Q668 1017 668 1075Q668 1133 696.5 1159.5Q725 1186 791 1186H1075Q1140 1186 1169.0 1159.5Q1198 1133 1198 1075Q1198 1022 1170.5 993.5Q1143 965 1092 965H1075V57Q1075 10 1065.0 -2.0Q1055 -14 1020 -14H920Q872 -14 852.5 -4.0Q833 6 819 31L403 762V219H461Q526 219 554.0 194.0Q582 169 582 111Q582 52 553.5 26.0Q525 0 461 0H174Q109 0 80.0 26.0Q51 52 51 111Q51 164 78.0 191.5Q105 219 158 219H174V965H158Q107 965 79.0 993.5Q51 1022 51 1075Q51 1133 80.5 1159.5Q110 1186 174 1186H338Q397 1186 418.0 1170.5Q439 1155 465 1108Z"/>
    <path transform="translate(382.5,122.0) scale(0.007324,-0.007324)" d="M952 967H743V221H911Q978 221 1007.0 195.0Q1036 169 1036 111Q1036 52 1007.0 26.0Q978 0 911 0H317Q251 0 222.0 26.0Q193 52 193 111Q193 170 221.5 195.5Q250 221 317 221H485V967H276L270 764V739Q270 691 243.5 664.0Q217 637 170 637Q114 637 87.5 665.5Q61 694 61 756V764L72 1063Q75 1152 96.5 1170.0Q118 1188 184 1188H1044Q1110 1188 1131.5 1170.0Q1153 1152 1157 1063L1167 764V756Q1167 693 1142.0 665.0Q1117 637 1061 637Q1007 637 983.5 664.5Q960 692 958 764Z"/>
    <path transform="translate(400.5,122.0) scale(0.007324,-0.007324)" d="M614 987Q485 987 411.5 883.0Q338 779 338 594Q338 409 412.0 304.0Q486 199 614 199Q743 199 817.0 303.5Q891 408 891 594Q891 779 817.5 883.0Q744 987 614 987ZM614 1219Q860 1219 1019.0 1043.0Q1178 867 1178 594Q1178 319 1020.0 144.0Q862 -31 614 -31Q369 -31 209.0 145.5Q49 322 49 594Q49 868 207.5 1043.5Q366 1219 614 1219Z"/>
    <path transform="translate(409.5,122.0) scale(0.007324,-0.007324)" d="M864 545Q890 529 915 487Q919 481 922 477L1085 219H1096H1116Q1174 219 1203.5 192.0Q1233 165 1233 111Q1233 52 1203.5 26.0Q1174 0 1106 0H983Q915 0 877 59L874 61L629 438Q615 460 597.0 471.5Q579 483 559 483H465V219H481Q535 219 562.5 191.5Q590 164 590 111Q590 52 561.5 26.0Q533 0 465 0H207Q140 0 111.0 26.0Q82 52 82 111Q82 164 109.5 191.5Q137 219 190 219H207V965H190Q138 965 110.0 993.5Q82 1022 82 1075Q82 1133 111.5 1159.5Q141 1186 207 1186H668Q880 1186 989.0 1103.5Q1098 1021 1098 860Q1098 748 1037.5 666.0Q977 584 864 545ZM453 971V688H588Q713 688 763.0 720.5Q813 753 813 829Q813 904 767.5 937.5Q722 971 621 971Z"/>
    <path transform="translate(418.5,122.0) scale(0.007324,-0.007324)" d="M928 1153Q948 1189 969.0 1204.0Q990 1219 1022 1219Q1071 1219 1091.5 1193.0Q1112 1167 1112 1104L1114 844Q1114 775 1091.5 751.0Q1069 727 1010 727Q968 727 945.5 747.0Q923 767 907 821Q881 916 824.0 957.5Q767 999 666 999Q512 999 430.0 895.0Q348 791 348 594Q348 398 431.0 293.0Q514 188 668 188Q773 188 899.5 258.0Q1026 328 1059 328Q1098 328 1124.5 295.0Q1151 262 1151 213Q1151 125 996.0 47.0Q841 -31 647 -31Q385 -31 223.0 142.0Q61 315 61 594Q61 863 225.0 1041.0Q389 1219 641 1219Q712 1219 781.0 1203.0Q850 1187 928 1153Z"/>
    <path transform="translate(427.5,122.0) scale(0.007324,-0.007324)" d="M451 965V735H778V965H762Q708 965 679.5 993.0Q651 1021 651 1075Q651 1134 680.5 1160.0Q710 1186 778 1186H1036Q1104 1186 1132.5 1160.0Q1161 1134 1161 1075Q1161 1021 1133.5 993.0Q1106 965 1053 965H1036V219H1053Q1107 219 1135.0 191.5Q1163 164 1163 111Q1163 52 1134.0 26.0Q1105 0 1036 0H778Q709 0 680.0 25.5Q651 51 651 111Q651 164 679.5 191.5Q708 219 762 219H778V514H451V219H467Q521 219 549.5 191.5Q578 164 578 111Q578 52 548.5 26.0Q519 0 451 0H193Q124 0 95.0 25.5Q66 51 66 111Q66 164 94.0 191.5Q122 219 176 219H193V965H176Q123 965 95.5 993.0Q68 1021 68 1075Q68 1134 96.5 1160.0Q125 1186 193 1186H451Q518 1186 548.0 1160.0Q578 1134 578 1075Q578 1021 549.5 993.0Q521 965 467 965Z"/>
    <path transform="translate(436.5,122.0) scale(0.007324,-0.007324)" d="M901 975H436V719H612V731Q612 788 637.0 816.0Q662 844 713 844Q758 844 786.5 818.5Q815 793 815 754Q815 752 816.0 741.0Q817 730 817 719V512Q817 445 793.0 416.0Q769 387 715 387Q664 387 638.0 414.0Q612 441 612 494V512H436V213H901V332Q901 399 926.5 428.0Q952 457 1010 457Q1067 457 1091.5 428.5Q1116 400 1116 332V90Q1116 36 1095.0 18.0Q1074 0 1012 0H193Q127 0 98.5 26.0Q70 52 70 111Q70 164 97.0 191.5Q124 219 176 219H193V965H176Q125 965 97.5 993.5Q70 1022 70 1075Q70 1133 99.0 1159.5Q128 1186 193 1186H1012Q1073 1186 1094.5 1167.5Q1116 1149 1116 1094V870Q1116 802 1091.0 772.5Q1066 743 1010 743Q952 743 926.5 773.0Q901 803 901 870Z"/>
    <path transform="translate(445.5,122.0) scale(0.007324,-0.007324)" d="M864 1163Q879 1195 898.0 1207.0Q917 1219 956 1219Q1014 1219 1030.5 1197.5Q1047 1176 1049 1112L1053 920V909Q1053 850 1029.5 826.5Q1006 803 950 803Q879 803 844 879Q839 890 836 897Q805 959 752.0 990.5Q699 1022 627 1022Q537 1022 481.5 980.5Q426 939 426 874Q426 782 680 729Q723 720 748 715Q940 673 1026.0 587.0Q1112 501 1112 352Q1112 168 987.0 68.5Q862 -31 629 -31Q538 -31 466.5 -19.0Q395 -7 328 18Q312 -8 291.0 -19.5Q270 -31 233 -31Q170 -31 145.0 -7.0Q120 17 119 78L115 313V324Q115 390 139.5 416.0Q164 442 225 442Q290 442 334 348Q344 325 350 313Q389 236 458.5 198.0Q528 160 629 160Q721 160 772.0 198.0Q823 236 823 305Q823 412 592 467Q523 483 483 494Q289 545 214.0 621.5Q139 698 139 831Q139 1002 267.5 1110.5Q396 1219 600 1219Q668 1219 733.5 1205.0Q799 1191 864 1163Z"/>
    <path transform="translate(454.5,122.0) scale(0.007324,-0.007324)" d="M952 967H743V221H911Q978 221 1007.0 195.0Q1036 169 1036 111Q1036 52 1007.0 26.0Q978 0 911 0H317Q251 0 222.0 26.0Q193 52 193 111Q193 170 221.5 195.5Q250 221 317 221H485V967H276L270 764V739Q270 691 243.5 664.0Q217 637 170 637Q114 637 87.5 665.5Q61 694 61 756V764L72 1063Q75 1152 96.5 1170.0Q118 1188 184 1188H1044Q1110 1188 1131.5 1170.0Q1153 1152 1157 1063L1167 764V756Q1167 693 1142.0 665.0Q1117 637 1061 637Q1007 637 983.5 664.5Q960 692 958 764Z"/>
    <path transform="translate(463.5,122.0) scale(0.007324,-0.007324)" d="M864 545Q890 529 915 487Q919 481 922 477L1085 219H1096H1116Q1174 219 1203.5 192.0Q1233 165 1233 111Q1233 52 1203.5 26.0Q1174 0 1106 0H983Q915 0 877 59L874 61L629 438Q615 460 597.0 471.5Q579 483 559 483H465V219H481Q535 219 562.5 191.5Q590 164 590 111Q590 52 561.5 26.0Q533 0 465 0H207Q140 0 111.0 26.0Q82 52 82 111Q82 164 109.5 191.5Q137 219 190 219H207V965H190Q138 965 110.0 993.5Q82 1022 82 1075Q82 1133 111.5 1159.5Q141 1186 207 1186H668Q880 1186 989.0 1103.5Q1098 1021 1098 860Q1098 748 1037.5 666.0Q977 584 864 545ZM453 971V688H588Q713 688 763.0 720.5Q813 753 813 829Q813 904 767.5 937.5Q722 971 621 971Z"/>
    <path transform="translate(472.5,122.0) scale(0.007324,-0.007324)" d="M1118 219H1135Q1189 219 1217.0 191.5Q1245 164 1245 111Q1245 52 1215.5 26.0Q1186 0 1118 0H817Q748 0 719.0 25.5Q690 51 690 111Q690 169 719.0 194.0Q748 219 817 219H852L811 336H379L336 219H371Q439 219 468.5 193.5Q498 168 498 111Q498 52 468.5 26.0Q439 0 371 0H113Q44 0 15.0 26.0Q-14 52 -14 111Q-14 164 14.0 191.5Q42 219 96 219H113L381 965H301Q233 965 203.5 991.0Q174 1017 174 1075Q174 1134 203.5 1160.0Q233 1186 301 1186H676Q765 1186 801 1090V1087ZM594 965 449 543H739Z"/>
    <path transform="translate(481.5,122.0) scale(0.007324,-0.007324)" d="M952 967H743V221H911Q978 221 1007.0 195.0Q1036 169 1036 111Q1036 52 1007.0 26.0Q978 0 911 0H317Q251 0 222.0 26.0Q193 52 193 111Q193 170 221.5 195.5Q250 221 317 221H485V967H276L270 764V739Q270 691 243.5 664.0Q217 637 170 637Q114 637 87.5 665.5Q61 694 61 756V764L72 1063Q75 1152 96.5 1170.0Q118 1188 184 1188H1044Q1110 1188 1131.5 1170.0Q1153 1152 1157 1063L1167 764V756Q1167 693 1142.0 665.0Q1117 637 1061 637Q1007 637 983.5 664.5Q960 692 958 764Z"/>
    <path transform="translate(490.5,122.0) scale(0.007324,-0.007324)" d="M743 965V219H911Q979 219 1008.5 193.5Q1038 168 1038 111Q1038 53 1008.0 26.5Q978 0 911 0H317Q249 0 219.5 26.0Q190 52 190 111Q190 169 219.0 194.0Q248 219 317 219H485V965H317Q249 965 219.5 991.0Q190 1017 190 1075Q190 1134 219.0 1159.0Q248 1184 317 1184H911Q982 1184 1010.0 1159.0Q1038 1134 1038 1075Q1038 1017 1009.0 991.0Q980 965 911 965Z"/>
    <path transform="translate(499.5,122.0) scale(0.007324,-0.007324)" d="M614 987Q485 987 411.5 883.0Q338 779 338 594Q338 409 412.0 304.0Q486 199 614 199Q743 199 817.0 303.5Q891 408 891 594Q891 779 817.5 883.0Q744 987 614 987ZM614 1219Q860 1219 1019.0 1043.0Q1178 867 1178 594Q1178 319 1020.0 144.0Q862 -31 614 -31Q369 -31 209.0 145.5Q49 322 49 594Q49 868 207.5 1043.5Q366 1219 614 1219Z"/>
    <path transform="translate(508.5,122.0) scale(0.007324,-0.007324)" d="M846 414V965H791Q725 965 696.5 991.0Q668 1017 668 1075Q668 1133 696.5 1159.5Q725 1186 791 1186H1075Q1140 1186 1169.0 1159.5Q1198 1133 1198 1075Q1198 1022 1170.5 993.5Q1143 965 1092 965H1075V57Q1075 10 1065.0 -2.0Q1055 -14 1020 -14H920Q872 -14 852.5 -4.0Q833 6 819 31L403 762V219H461Q526 219 554.0 194.0Q582 169 582 111Q582 52 553.5 26.0Q525 0 461 0H174Q109 0 80.0 26.0Q51 52 51 111Q51 164 78.0 191.5Q105 219 158 219H174V965H158Q107 965 79.0 993.5Q51 1022 51 1075Q51 1133 80.5 1159.5Q110 1186 174 1186H338Q397 1186 418.0 1170.5Q439 1155 465 1108Z"/>
  </g>
</svg>
