<svg viewBox="0 0 720 200" width="720" height="200" xmlns="http://www.w3.org/2000/svg">
  <style>
    /* Weft shuttle lines — alternating left/right dash movement */
    @keyframes weft-r { to { stroke-dashoffset: -36; } }
    @keyframes weft-l { to { stroke-dashoffset: 36; } }
    @keyframes weft-r2 { to { stroke-dashoffset: -48; } }
    @keyframes weft-l2 { to { stroke-dashoffset: 32; } }
    @keyframes weft-r3 { to { stroke-dashoffset: -30; } }
    @keyframes weft-l3 { to { stroke-dashoffset: 24; } }

    .w1 { animation: weft-r 2.0s linear infinite; }
    .w2 { animation: weft-l 2.8s linear infinite; }
    .w3 { animation: weft-r2 2.4s linear infinite; }
    .w4 { animation: weft-l 3.2s linear infinite; }
    .w5 { animation: weft-r3 1.8s linear infinite; }
    .w6 { animation: weft-l 3.6s linear infinite; }
    .w7 { animation: weft-r2 3.0s linear infinite; }
    .w8 { animation: weft-l2 2.2s linear infinite; }
    .w9 { animation: weft-r2 3.6s linear infinite; }
    .w10 { animation: weft-l2 2.6s linear infinite; }
    .w11 { animation: weft-r2 2.0s linear infinite; }
    .w12 { animation: weft-l3 1.6s linear infinite; }

    /* Node pulse */
    @keyframes pulse { 0%,100% { opacity: 0.08; } 50% { opacity: 0.40; } }
    .n1 { animation: pulse 0.9s ease-in-out infinite; }
    .n2 { animation: pulse 1.0s ease-in-out 0.4s infinite; }
    .n3 { animation: pulse 1.0s ease-in-out 0.1s infinite; }
    .n4 { animation: pulse 0.9s ease-in-out 0.6s infinite; }
    .n5 { animation: pulse 0.8s ease-in-out 0.2s infinite; }
    .n6 { animation: pulse 1.1s ease-in-out 0.8s infinite; }
    .n7 { animation: pulse 0.7s ease-in-out 0.2s infinite; }
    .n8 { animation: pulse 1.0s ease-in-out 0.5s infinite; }
    .n9 { animation: pulse 1.1s ease-in-out 0.9s infinite; }
    .n10 { animation: pulse 0.8s ease-in-out 0.3s infinite; }
    .n11 { animation: pulse 1.0s ease-in-out 0.7s infinite; }
    .n12 { animation: pulse 0.9s ease-in-out 0.1s infinite; }
    .n13 { animation: pulse 1.1s ease-in-out 0.6s infinite; }
    .n14 { animation: pulse 0.8s ease-in-out 0.3s infinite; }
    .n15 { animation: pulse 1.1s ease-in-out 0.8s infinite; }
    .n16 { animation: pulse 1.0s ease-in-out 0.1s infinite; }
    .n17 { animation: pulse 0.9s ease-in-out 0.6s infinite; }
    .n18 { animation: pulse 0.8s ease-in-out 0.4s infinite; }
    .n19 { animation: pulse 1.1s ease-in-out 0.9s infinite; }
    .n20 { animation: pulse 0.9s ease-in-out 0.4s infinite; }
    .n21 { animation: pulse 1.0s ease-in-out 0.7s infinite; }

    /* Ambient glow drift */
    @keyframes glow-drift { 0%,100% { opacity: 0.03; } 50% { opacity: 0.06; } }
    .glow { animation: glow-drift 4s ease-in-out infinite; }
  </style>

  <defs>
    <linearGradient id="ag" gradientUnits="userSpaceOnUse" x1="320" y1="96" x2="480" y2="56">
      <stop offset="0%" stop-color="#7ee787"/>
      <stop offset="50%" stop-color="#a5d6ff"/>
      <stop offset="100%" stop-color="#d2a8ff"/>
    </linearGradient>
    <radialGradient id="glow" cx="0.4" cy="0.5" r="0.4">
      <stop offset="0%" stop-color="#a5d6ff" stop-opacity="1"/>
      <stop offset="100%" stop-color="#a5d6ff" stop-opacity="0"/>
    </radialGradient>
  </defs>

  <!-- Background -->
  <rect x="0" y="0" width="720" height="200" fill="#0d1117"/>

  <!-- Ambient glow -->
  <rect x="0" y="0" width="720" height="200" fill="url(#glow)" class="glow"/>

  <!-- Warp grid (vertical threads) -->
  <g opacity="0.12" stroke="#e6edf3" stroke-width="1">
    <line x1="160" y1="0" x2="160" y2="200"/><line x1="180" y1="0" x2="180" y2="200"/>
    <line x1="200" y1="0" x2="200" y2="200"/><line x1="220" y1="0" x2="220" y2="200"/>
    <line x1="240" y1="0" x2="240" y2="200"/><line x1="260" y1="0" x2="260" y2="200"/>
    <line x1="280" y1="0" x2="280" y2="200"/><line x1="300" y1="0" x2="300" y2="200"/>
    <line x1="320" y1="0" x2="320" y2="200"/><line x1="340" y1="0" x2="340" y2="200"/>
    <line x1="360" y1="0" x2="360" y2="200"/><line x1="380" y1="0" x2="380" y2="200"/>
    <line x1="400" y1="0" x2="400" y2="200"/><line x1="420" y1="0" x2="420" y2="200"/>
    <line x1="440" y1="0" x2="440" y2="200"/><line x1="460" y1="0" x2="460" y2="200"/>
    <line x1="480" y1="0" x2="480" y2="200"/><line x1="500" y1="0" x2="500" y2="200"/>
    <line x1="520" y1="0" x2="520" y2="200"/><line x1="540" y1="0" x2="540" y2="200"/>
    <line x1="560" y1="0" x2="560" y2="200"/>
  </g>

  <!-- Weft shuttle lines (CSS-animated dashes) -->
  <line class="w1" x1="100" y1="10" x2="620" y2="10" stroke="#7ee787" stroke-width="1.5" stroke-linecap="round" stroke-dasharray="6 30" opacity="0.30"/>
  <line class="w2" x1="80" y1="22" x2="640" y2="22" stroke="#a5d6ff" stroke-width="1.5" stroke-linecap="round" stroke-dasharray="12 24" opacity="0.25"/>
  <line class="w3" x1="110" y1="35" x2="610" y2="35" stroke="#d2a8ff" stroke-width="1.5" stroke-linecap="round" stroke-dasharray="4 12 8 24" opacity="0.30"/>
  <line class="w4" x1="80" y1="48" x2="640" y2="48" stroke="#7ee787" stroke-width="1.5" stroke-linecap="round" stroke-dasharray="8 28" opacity="0.25"/>
  <line class="w5" x1="100" y1="60" x2="620" y2="60" stroke="#a5d6ff" stroke-width="1.5" stroke-linecap="round" stroke-dasharray="5 25" opacity="0.28"/>
  <line class="w6" x1="150" y1="72" x2="570" y2="72" stroke="#d2a8ff" stroke-width="1" stroke-linecap="round" stroke-dasharray="6 30" opacity="0.12"/>
  <line class="w7" x1="150" y1="130" x2="570" y2="130" stroke="#7ee787" stroke-width="1" stroke-linecap="round" stroke-dasharray="3 15 10 20" opacity="0.12"/>
  <line class="w8" x1="100" y1="142" x2="620" y2="142" stroke="#a5d6ff" stroke-width="1.5" stroke-linecap="round" stroke-dasharray="10 22" opacity="0.28"/>
  <line class="w9" x1="110" y1="155" x2="610" y2="155" stroke="#d2a8ff" stroke-width="1.5" stroke-linecap="round" stroke-dasharray="14 34" opacity="0.30"/>
  <line class="w10" x1="80" y1="168" x2="640" y2="168" stroke="#7ee787" stroke-width="1.5" stroke-linecap="round" stroke-dasharray="8 24" opacity="0.25"/>
  <line class="w11" x1="100" y1="180" x2="620" y2="180" stroke="#a5d6ff" stroke-width="1.5" stroke-linecap="round" stroke-dasharray="6 18 3 21" opacity="0.30"/>
  <line class="w12" x1="110" y1="192" x2="610" y2="192" stroke="#d2a8ff" stroke-width="1.5" stroke-linecap="round" stroke-dasharray="4 20" opacity="0.25"/>

  <!-- Intersection nodes (CSS-animated pulse) -->
  <path class="n1" d="M200,7.5 L202.5,10 L200,12.5 L197.5,10Z" fill="#7ee787"/>
  <path class="n2" d="M400,7.5 L402.5,10 L400,12.5 L397.5,10Z" fill="#7ee787"/>
  <circle class="n3" cx="260" cy="22" r="2" fill="#a5d6ff"/>
  <circle class="n4" cx="480" cy="22" r="2" fill="#a5d6ff"/>
  <path class="n5" d="M180,32.5 L182.5,35 L180,37.5 L177.5,35Z" fill="#d2a8ff"/>
  <path class="n6" d="M360,32.5 L362.5,35 L360,37.5 L357.5,35Z" fill="#d2a8ff"/>
  <path class="n7" d="M520,32.5 L522.5,35 L520,37.5 L517.5,35Z" fill="#d2a8ff"/>
  <circle class="n8" cx="300" cy="48" r="2" fill="#7ee787"/>
  <circle class="n9" cx="500" cy="48" r="2" fill="#7ee787"/>
  <path class="n10" d="M220,57.5 L222.5,60 L220,62.5 L217.5,60Z" fill="#a5d6ff"/>
  <path class="n11" d="M440,57.5 L442.5,60 L440,62.5 L437.5,60Z" fill="#a5d6ff"/>
  <circle class="n12" cx="240" cy="142" r="2" fill="#a5d6ff"/>
  <circle class="n13" cx="460" cy="142" r="2" fill="#a5d6ff"/>
  <path class="n14" d="M320,152.5 L322.5,155 L320,157.5 L317.5,155Z" fill="#d2a8ff"/>
  <path class="n15" d="M540,152.5 L542.5,155 L540,157.5 L537.5,155Z" fill="#d2a8ff"/>
  <circle class="n16" cx="200" cy="168" r="2" fill="#7ee787"/>
  <circle class="n17" cx="420" cy="168" r="2" fill="#7ee787"/>
  <path class="n18" d="M280,177.5 L282.5,180 L280,182.5 L277.5,180Z" fill="#a5d6ff"/>
  <path class="n19" d="M500,177.5 L502.5,180 L500,182.5 L497.5,180Z" fill="#a5d6ff"/>
  <circle class="n20" cx="340" cy="192" r="2" fill="#d2a8ff"/>
  <circle class="n21" cx="520" cy="192" r="2" fill="#d2a8ff"/>


  <!-- Title: "Open" (Courier Bold, paths) -->
  <g fill="#e6edf3">
    <path transform="translate(244.8,92.0) scale(0.023438,-0.023438)" d="M614 987Q485 987 411.5 883.0Q338 779 338 594Q338 409 412.0 304.0Q486 199 614 199Q743 199 817.0 303.5Q891 408 891 594Q891 779 817.5 883.0Q744 987 614 987ZM614 1219Q860 1219 1019.0 1043.0Q1178 867 1178 594Q1178 319 1020.0 144.0Q862 -31 614 -31Q369 -31 209.0 145.5Q49 322 49 594Q49 868 207.5 1043.5Q366 1219 614 1219Z"/>
    <path transform="translate(273.6,92.0) scale(0.023438,-0.023438)" d="M424 94V-178H551Q619 -178 648.5 -204.0Q678 -230 678 -289Q678 -347 649.0 -372.0Q620 -397 551 -397H127Q58 -397 30.0 -372.5Q2 -348 2 -289Q2 -230 30.5 -204.0Q59 -178 127 -178H186V705H170Q117 705 89.0 733.0Q61 761 61 815Q61 874 89.0 899.0Q117 924 186 924H340Q369 924 383.0 913.5Q397 903 397 883V811Q448 879 520.5 913.5Q593 948 684 948Q889 948 1024.0 817.0Q1159 686 1159 487Q1159 279 1028.0 142.5Q897 6 698 6Q617 6 546.5 28.5Q476 51 424 94ZM655 735Q556 735 492.0 662.0Q428 589 428 475Q428 361 492.0 288.0Q556 215 655 215Q754 215 818.5 288.5Q883 362 883 475Q883 589 819.0 662.0Q755 735 655 735Z"/>
    <path transform="translate(302.4,92.0) scale(0.023438,-0.023438)" d="M342 403Q368 292 442.5 237.0Q517 182 641 182Q765 182 886.0 242.5Q1007 303 1032 303Q1069 303 1092.5 275.5Q1116 248 1116 205Q1116 111 977.0 43.0Q838 -25 633 -25Q391 -25 239.5 111.0Q88 247 88 461Q88 674 239.5 810.0Q391 946 633 946Q849 946 991.0 818.5Q1133 691 1133 506Q1133 447 1104.5 425.0Q1076 403 987 403ZM881 559Q864 652 793.5 703.0Q723 754 610 754Q501 754 434.5 705.5Q368 657 342 559Z"/>
    <path transform="translate(331.2,92.0) scale(0.023438,-0.023438)" d="M1034 221H1047Q1103 221 1131.0 193.5Q1159 166 1159 111Q1159 52 1130.5 26.0Q1102 0 1034 0H788Q721 0 691.5 26.0Q662 52 662 111Q662 166 690.5 193.5Q719 221 776 221H788V510Q788 630 754.5 680.5Q721 731 643 731Q560 731 507.5 670.5Q455 610 455 510V221H467Q524 221 552.0 193.5Q580 166 580 111Q580 52 551.0 26.0Q522 0 455 0H207Q140 0 111.0 26.0Q82 52 82 111Q82 166 110.0 193.5Q138 221 195 221H207V705H190Q136 705 108.0 732.5Q80 760 80 813Q80 872 109.0 898.0Q138 924 207 924H377Q405 924 419.5 913.0Q434 902 434 881V803Q480 875 551.5 911.5Q623 948 717 948Q877 948 955.5 851.0Q1034 754 1034 555Z"/>
  </g>

  <!-- Title: "Weft" (Courier Bold, gradient paths) -->
  <g fill="url(#ag)">
    <path transform="translate(360.0,92.0) scale(0.023438,-0.023438)" d="M326 965 362 379 485 811Q499 859 531.0 883.0Q563 907 614 907Q665 907 695.5 884.0Q726 861 741 811L866 379L901 965H874Q816 965 788.0 992.0Q760 1019 760 1075Q760 1135 788.0 1160.5Q816 1186 885 1186H1126Q1194 1186 1222.5 1160.0Q1251 1134 1251 1075Q1251 1021 1223.5 993.0Q1196 965 1143 965H1126L1030 84Q1025 32 1010.0 16.0Q995 0 940 0H893Q851 0 831.5 15.5Q812 31 793 96L610 690L434 96Q416 33 396.5 16.5Q377 0 334 0H287Q233 0 218.5 15.5Q204 31 199 84L100 965H84Q31 965 3.0 993.0Q-25 1021 -25 1075Q-25 1134 4.0 1160.0Q33 1186 100 1186H342Q410 1186 438.5 1160.0Q467 1134 467 1075Q467 1019 439.0 992.0Q411 965 352 965Z"/>
    <path transform="translate(388.8,92.0) scale(0.023438,-0.023438)" d="M342 403Q368 292 442.5 237.0Q517 182 641 182Q765 182 886.0 242.5Q1007 303 1032 303Q1069 303 1092.5 275.5Q1116 248 1116 205Q1116 111 977.0 43.0Q838 -25 633 -25Q391 -25 239.5 111.0Q88 247 88 461Q88 674 239.5 810.0Q391 946 633 946Q849 946 991.0 818.5Q1133 691 1133 506Q1133 447 1104.5 425.0Q1076 403 987 403ZM881 559Q864 652 793.5 703.0Q723 754 610 754Q501 754 434.5 705.5Q368 657 342 559Z"/>
    <path transform="translate(417.6,92.0) scale(0.023438,-0.023438)" d="M678 895H893Q962 895 991.0 869.5Q1020 844 1020 786Q1020 728 990.5 702.0Q961 676 893 676H678V219H877Q946 219 975.0 194.0Q1004 169 1004 111Q1004 52 974.5 26.0Q945 0 877 0H326Q257 0 228.0 26.0Q199 52 199 111Q199 169 227.5 194.0Q256 219 326 219H432V676H326Q257 676 228.0 702.0Q199 728 199 786Q199 845 227.5 870.0Q256 895 326 895H432V952Q432 1148 533.0 1230.5Q634 1313 877 1313Q1003 1313 1062.5 1283.0Q1122 1253 1122 1190Q1122 1148 1095.5 1123.0Q1069 1098 1024 1098Q991 1098 930.5 1107.0Q870 1116 846 1116Q753 1116 715.5 1074.5Q678 1033 678 928Z"/>
    <path transform="translate(446.4,92.0) scale(0.023438,-0.023438)" d="M545 868H850Q919 868 948.0 843.0Q977 818 977 760Q977 701 947.5 675.0Q918 649 850 649H545V393Q545 285 578.0 245.0Q611 205 694 205Q772 205 878.0 250.0Q984 295 1020 295Q1061 295 1090.5 262.5Q1120 230 1120 184Q1120 107 980.5 43.5Q841 -20 664 -20Q561 -20 483.0 8.0Q405 36 360 88Q327 128 313.0 184.0Q299 240 299 371V393V649H205Q137 649 108.5 675.0Q80 701 80 760Q80 819 108.0 843.5Q136 868 205 868H299V1102Q299 1171 327.5 1199.0Q356 1227 422 1227Q488 1227 516.5 1199.0Q545 1171 545 1102Z"/>
  </g>

  <!-- Subtitle (SF Pro, paths) -->
  <g fill="#7d8590">
<path transform="translate(159.2,122.0) scale(0.007324,-0.007324)" d="M140 0V1443H1016V1281H320V785H959V625H320V0Z"/>
    <path transform="translate(170.1,122.0) scale(0.007324,-0.007324)" d="M140 0V1443H320V0Z"/>
    <path transform="translate(176.5,122.0) scale(0.007324,-0.007324)" d="M140 0V1443H681Q820 1443 923.5 1389.5Q1027 1336 1084.0 1239.5Q1141 1143 1141 1013V1011Q1141 861 1063.5 751.5Q986 642 851 599L1185 0H974L665 571Q662 571 659.5 571.0Q657 571 654 571H320V0ZM320 730H665Q804 730 879.5 802.0Q955 874 955 1007V1009Q955 1138 875.5 1210.5Q796 1283 657 1283H320Z"/>
    <path transform="translate(188.5,122.0) scale(0.007324,-0.007324)" d="M140 0V1443H1034V1281H320V818H997V658H320V162H1034V0Z"/>
    <path transform="translate(199.8,122.0) scale(0.007324,-0.007324)" d="M119 504V666H759V504Z"/>
    <path transform="translate(209.2,122.0) scale(0.007324,-0.007324)" d="M25 0 562 1443H695V1227H649L214 0ZM271 413 331 566H971L1031 413ZM1087 0 653 1227V1443H740L1276 0Z"/>
    <path transform="translate(221.7,122.0) scale(0.007324,-0.007324)" d="M140 0V1443H315L1262 84L1034 304H1114V1443H1292V0H1117L170 1359L398 1139H318V0Z"/>
    <path transform="translate(235.2,122.0) scale(0.007324,-0.007324)" d="M140 0V1443H625Q839 1443 991.0 1357.5Q1143 1272 1224.5 1111.5Q1306 951 1306 724V722Q1306 495 1225.0 333.0Q1144 171 992.0 85.5Q840 0 625 0ZM320 162H613Q777 162 890.5 227.0Q1004 292 1063.0 416.5Q1122 541 1122 720V722Q1122 902 1063.0 1027.0Q1004 1152 890.5 1216.5Q777 1281 613 1281H320Z"/>
    <path transform="translate(248.4,122.0) scale(0.007324,-0.007324)" d="M119 504V666H759V504Z"/>
    <path transform="translate(257.8,122.0) scale(0.007324,-0.007324)" d="M140 0V1443H1016V1281H320V785H959V625H320V0Z"/>
    <path transform="translate(268.8,122.0) scale(0.007324,-0.007324)" d="M750 -24Q545 -24 395.5 67.0Q246 158 165.0 325.0Q84 492 84 721V723Q84 952 165.5 1118.5Q247 1285 396.5 1376.0Q546 1467 750 1467Q954 1467 1103.0 1376.0Q1252 1285 1333.0 1118.5Q1414 952 1414 723V721Q1414 492 1333.0 325.0Q1252 158 1103.5 67.0Q955 -24 750 -24ZM750 142Q899 142 1006.5 213.5Q1114 285 1172.0 415.0Q1230 545 1230 721V723Q1230 900 1171.5 1030.0Q1113 1160 1005.0 1230.5Q897 1301 750 1301Q603 1301 494.5 1230.5Q386 1160 327.0 1030.5Q268 901 268 723V721Q268 544 327.0 414.0Q386 284 494.0 213.0Q602 142 750 142Z"/>
    <path transform="translate(282.7,122.0) scale(0.007324,-0.007324)" d="M140 0V1443H681Q820 1443 923.5 1389.5Q1027 1336 1084.0 1239.5Q1141 1143 1141 1013V1011Q1141 861 1063.5 751.5Q986 642 851 599L1185 0H974L665 571Q662 571 659.5 571.0Q657 571 654 571H320V0ZM320 730H665Q804 730 879.5 802.0Q955 874 955 1007V1009Q955 1138 875.5 1210.5Q796 1283 657 1283H320Z"/>
    <path transform="translate(294.7,122.0) scale(0.007324,-0.007324)" d="M745 -24Q594 -24 472.0 28.5Q350 81 263.5 180.0Q177 279 130.5 418.0Q84 557 84 729V730Q84 956 165.5 1121.0Q247 1286 395.5 1376.5Q544 1467 745 1467Q911 1467 1032.5 1408.5Q1154 1350 1232.0 1249.5Q1310 1149 1343 1021L1348 1002H1159L1155 1013Q1105 1150 1001.0 1225.5Q897 1301 745 1301Q597 1301 490.0 1232.5Q383 1164 325.5 1036.0Q268 908 268 730V729Q268 593 301.0 484.5Q334 376 396.5 299.5Q459 223 547.0 182.5Q635 142 745 142Q873 142 970.5 193.5Q1068 245 1122.5 337.0Q1177 429 1177 550V576H770V734H1357V597Q1357 451 1315.5 336.0Q1274 221 1195.0 140.5Q1116 60 1002.5 18.0Q889 -24 745 -24Z"/>
    <path transform="translate(308.3,122.0) scale(0.007324,-0.007324)" d="M140 0V1443H1034V1281H320V818H997V658H320V162H1034V0Z"/>
    <path transform="translate(319.6,122.0) scale(0.007324,-0.007324)" d="M505 0V1281H50V1443H1140V1281H685V0Z"/>
    <path transform="translate(337.4,122.0) scale(0.007324,-0.007324)" d="M25 0 562 1443H695V1227H649L214 0ZM271 413 331 566H971L1031 413ZM1087 0 653 1227V1443H740L1276 0Z"/>
    <path transform="translate(349.9,122.0) scale(0.007324,-0.007324)" d="M745 -24Q594 -24 472.0 28.5Q350 81 263.5 180.0Q177 279 130.5 418.0Q84 557 84 729V730Q84 956 165.5 1121.0Q247 1286 395.5 1376.5Q544 1467 745 1467Q911 1467 1032.5 1408.5Q1154 1350 1232.0 1249.5Q1310 1149 1343 1021L1348 1002H1159L1155 1013Q1105 1150 1001.0 1225.5Q897 1301 745 1301Q597 1301 490.0 1232.5Q383 1164 325.5 1036.0Q268 908 268 730V729Q268 593 301.0 484.5Q334 376 396.5 299.5Q459 223 547.0 182.5Q635 142 745 142Q873 142 970.5 193.5Q1068 245 1122.5 337.0Q1177 429 1177 550V576H770V734H1357V597Q1357 451 1315.5 336.0Q1274 221 1195.0 140.5Q1116 60 1002.5 18.0Q889 -24 745 -24Z"/>
    <path transform="translate(363.5,122.0) scale(0.007324,-0.007324)" d="M140 0V1443H1034V1281H320V818H997V658H320V162H1034V0Z"/>
    <path transform="translate(374.8,122.0) scale(0.007324,-0.007324)" d="M140 0V1443H315L1262 84L1034 304H1114V1443H1292V0H1117L170 1359L398 1139H318V0Z"/>
    <path transform="translate(388.3,122.0) scale(0.007324,-0.007324)" d="M505 0V1281H50V1443H1140V1281H685V0Z"/>
    <path transform="translate(406.1,122.0) scale(0.007324,-0.007324)" d="M750 -24Q545 -24 395.5 67.0Q246 158 165.0 325.0Q84 492 84 721V723Q84 952 165.5 1118.5Q247 1285 396.5 1376.0Q546 1467 750 1467Q954 1467 1103.0 1376.0Q1252 1285 1333.0 1118.5Q1414 952 1414 723V721Q1414 492 1333.0 325.0Q1252 158 1103.5 67.0Q955 -24 750 -24ZM750 142Q899 142 1006.5 213.5Q1114 285 1172.0 415.0Q1230 545 1230 721V723Q1230 900 1171.5 1030.0Q1113 1160 1005.0 1230.5Q897 1301 750 1301Q603 1301 494.5 1230.5Q386 1160 327.0 1030.5Q268 901 268 723V721Q268 544 327.0 414.0Q386 284 494.0 213.0Q602 142 750 142Z"/>
    <path transform="translate(420.1,122.0) scale(0.007324,-0.007324)" d="M140 0V1443H681Q820 1443 923.5 1389.5Q1027 1336 1084.0 1239.5Q1141 1143 1141 1013V1011Q1141 861 1063.5 751.5Q986 642 851 599L1185 0H974L665 571Q662 571 659.5 571.0Q657 571 654 571H320V0ZM320 730H665Q804 730 879.5 802.0Q955 874 955 1007V1009Q955 1138 875.5 1210.5Q796 1283 657 1283H320Z"/>
    <path transform="translate(432.0,122.0) scale(0.007324,-0.007324)" d="M743 -24Q543 -24 394.5 68.0Q246 160 165.0 327.5Q84 495 84 722V723Q84 950 165.0 1117.0Q246 1284 394.0 1375.5Q542 1467 743 1467Q893 1467 1016.0 1410.0Q1139 1353 1221.5 1251.0Q1304 1149 1331 1012L1333 1002H1151L1144 1024Q1116 1112 1060.5 1173.5Q1005 1235 925.0 1268.0Q845 1301 743 1301Q599 1301 492.5 1229.5Q386 1158 327.5 1028.5Q269 899 269 723V722Q269 547 327.5 416.5Q386 286 493.0 214.0Q600 142 743 142Q844 142 923.5 175.0Q1003 208 1060.0 272.5Q1117 337 1148 432L1151 441H1333L1331 431Q1304 293 1222.0 190.5Q1140 88 1017.0 32.0Q894 -24 743 -24Z"/>
    <path transform="translate(445.3,122.0) scale(0.007324,-0.007324)" d="M140 0V1443H320V819H1112V1443H1292V0H1112V657H320V0Z"/>
    <path transform="translate(458.8,122.0) scale(0.007324,-0.007324)" d="M140 0V1443H1034V1281H320V818H997V658H320V162H1034V0Z"/>
    <path transform="translate(470.1,122.0) scale(0.007324,-0.007324)" d="M612 -24Q456 -24 337.5 24.5Q219 73 149.5 163.0Q80 253 71 376L70 390H250L252 376Q263 304 311.0 251.5Q359 199 438.5 170.5Q518 142 622 142Q726 142 802.0 171.5Q878 201 919.5 256.0Q961 311 961 385V386Q961 481 895.0 538.0Q829 595 680 628L520 663Q379 694 287.5 747.5Q196 801 151.0 879.5Q106 958 106 1063V1064Q107 1183 172.0 1273.5Q237 1364 351.5 1415.5Q466 1467 614 1467Q755 1467 866.0 1416.5Q977 1366 1043.5 1276.0Q1110 1186 1118 1068L1119 1053H939L937 1067Q926 1141 883.0 1193.0Q840 1245 770.5 1273.0Q701 1301 609 1301Q513 1301 441.0 1272.0Q369 1243 329.5 1191.0Q290 1139 290 1069V1068Q290 1009 319.5 964.0Q349 919 410.0 887.5Q471 856 565 835L725 800Q873 768 965.5 715.0Q1058 662 1101.5 583.5Q1145 505 1145 395V394Q1145 266 1080.5 172.0Q1016 78 896.5 27.0Q777 -24 612 -24Z"/>
    <path transform="translate(482.0,122.0) scale(0.007324,-0.007324)" d="M505 0V1281H50V1443H1140V1281H685V0Z"/>
    <path transform="translate(493.7,122.0) scale(0.007324,-0.007324)" d="M140 0V1443H681Q820 1443 923.5 1389.5Q1027 1336 1084.0 1239.5Q1141 1143 1141 1013V1011Q1141 861 1063.5 751.5Q986 642 851 599L1185 0H974L665 571Q662 571 659.5 571.0Q657 571 654 571H320V0ZM320 730H665Q804 730 879.5 802.0Q955 874 955 1007V1009Q955 1138 875.5 1210.5Q796 1283 657 1283H320Z"/>
    <path transform="translate(505.7,122.0) scale(0.007324,-0.007324)" d="M25 0 562 1443H695V1227H649L214 0ZM271 413 331 566H971L1031 413ZM1087 0 653 1227V1443H740L1276 0Z"/>
    <path transform="translate(518.2,122.0) scale(0.007324,-0.007324)" d="M505 0V1281H50V1443H1140V1281H685V0Z"/>
    <path transform="translate(529.9,122.0) scale(0.007324,-0.007324)" d="M140 0V1443H320V0Z"/>
    <path transform="translate(536.3,122.0) scale(0.007324,-0.007324)" d="M750 -24Q545 -24 395.5 67.0Q246 158 165.0 325.0Q84 492 84 721V723Q84 952 165.5 1118.5Q247 1285 396.5 1376.0Q546 1467 750 1467Q954 1467 1103.0 1376.0Q1252 1285 1333.0 1118.5Q1414 952 1414 723V721Q1414 492 1333.0 325.0Q1252 158 1103.5 67.0Q955 -24 750 -24ZM750 142Q899 142 1006.5 213.5Q1114 285 1172.0 415.0Q1230 545 1230 721V723Q1230 900 1171.5 1030.0Q1113 1160 1005.0 1230.5Q897 1301 750 1301Q603 1301 494.5 1230.5Q386 1160 327.0 1030.5Q268 901 268 723V721Q268 544 327.0 414.0Q386 284 494.0 213.0Q602 142 750 142Z"/>
    <path transform="translate(550.3,122.0) scale(0.007324,-0.007324)" d="M140 0V1443H315L1262 84L1034 304H1114V1443H1292V0H1117L170 1359L398 1139H318V0Z"/>
  </g>
</svg>
