<svg viewBox="0 0 720 200" width="720" height="200" xmlns="http://www.w3.org/2000/svg">
  <style>
    /* Weft shuttle lines — alternating left/right dash movement */
    @keyframes weft-r { to { stroke-dashoffset: -36; } }
    @keyframes weft-l { to { stroke-dashoffset: 36; } }
    @keyframes weft-r2 { to { stroke-dashoffset: -48; } }
    @keyframes weft-l2 { to { stroke-dashoffset: 32; } }
    @keyframes weft-r3 { to { stroke-dashoffset: -30; } }
    @keyframes weft-l3 { to { stroke-dashoffset: 24; } }

    .w1 { animation: weft-r 2.0s linear infinite; }
    .w2 { animation: weft-l 2.8s linear infinite; }
    .w3 { animation: weft-r2 2.4s linear infinite; }
    .w4 { animation: weft-l 3.2s linear infinite; }
    .w5 { animation: weft-r3 1.8s linear infinite; }
    .w6 { animation: weft-l 3.6s linear infinite; }
    .w7 { animation: weft-r2 3.0s linear infinite; }
    .w8 { animation: weft-l2 2.2s linear infinite; }
    .w9 { animation: weft-r2 3.6s linear infinite; }
    .w10 { animation: weft-l2 2.6s linear infinite; }
    .w11 { animation: weft-r2 2.0s linear infinite; }
    .w12 { animation: weft-l3 1.6s linear infinite; }

    /* Node pulse */
    @keyframes pulse { 0%,100% { opacity: 0.08; } 50% { opacity: 0.40; } }
    .n1 { animation: pulse 0.9s ease-in-out infinite; }
    .n2 { animation: pulse 1.0s ease-in-out 0.4s infinite; }
    .n3 { animation: pulse 1.0s ease-in-out 0.1s infinite; }
    .n4 { animation: pulse 0.9s ease-in-out 0.6s infinite; }
    .n5 { animation: pulse 0.8s ease-in-out 0.2s infinite; }
    .n6 { animation: pulse 1.1s ease-in-out 0.8s infinite; }
    .n7 { animation: pulse 0.7s ease-in-out 0.2s infinite; }
    .n8 { animation: pulse 1.0s ease-in-out 0.5s infinite; }
    .n9 { animation: pulse 1.1s ease-in-out 0.9s infinite; }
    .n10 { animation: pulse 0.8s ease-in-out 0.3s infinite; }
    .n11 { animation: pulse 1.0s ease-in-out 0.7s infinite; }
    .n12 { animation: pulse 0.9s ease-in-out 0.1s infinite; }
    .n13 { animation: pulse 1.1s ease-in-out 0.6s infinite; }
    .n14 { animation: pulse 0.8s ease-in-out 0.3s infinite; }
    .n15 { animation: pulse 1.1s ease-in-out 0.8s infinite; }
    .n16 { animation: pulse 1.0s ease-in-out 0.1s infinite; }
    .n17 { animation: pulse 0.9s ease-in-out 0.6s infinite; }
    .n18 { animation: pulse 0.8s ease-in-out 0.4s infinite; }
    .n19 { animation: pulse 1.1s ease-in-out 0.9s infinite; }
    .n20 { animation: pulse 0.9s ease-in-out 0.4s infinite; }
    .n21 { animation: pulse 1.0s ease-in-out 0.7s infinite; }

    /* Ambient glow drift */
    @keyframes glow-drift { 0%,100% { opacity: 0.03; } 50% { opacity: 0.06; } }
    .glow { animation: glow-drift 4s ease-in-out infinite; }
  </style>

  <defs>
    <linearGradient id="ag" gradientUnits="userSpaceOnUse" x1="320" y1="96" x2="480" y2="56">
      <stop offset="0%" stop-color="#7ee787"/>
      <stop offset="50%" stop-color="#a5d6ff"/>
      <stop offset="100%" stop-color="#d2a8ff"/>
    </linearGradient>
    <radialGradient id="glow" cx="0.4" cy="0.5" r="0.4">
      <stop offset="0%" stop-color="#a5d6ff" stop-opacity="1"/>
      <stop offset="100%" stop-color="#a5d6ff" stop-opacity="0"/>
    </radialGradient>
  </defs>

  <!-- Background -->
  <rect x="0" y="0" width="720" height="200" fill="#0d1117"/>

  <!-- Ambient glow -->
  <rect x="0" y="0" width="720" height="200" fill="url(#glow)" class="glow"/>

  <!-- Warp grid (vertical threads) -->
  <g opacity="0.12" stroke="#e6edf3" stroke-width="1">
    <line x1="160" y1="0" x2="160" y2="200"/><line x1="180" y1="0" x2="180" y2="200"/>
    <line x1="200" y1="0" x2="200" y2="200"/><line x1="220" y1="0" x2="220" y2="200"/>
    <line x1="240" y1="0" x2="240" y2="200"/><line x1="260" y1="0" x2="260" y2="200"/>
    <line x1="280" y1="0" x2="280" y2="200"/><line x1="300" y1="0" x2="300" y2="200"/>
    <line x1="320" y1="0" x2="320" y2="200"/><line x1="340" y1="0" x2="340" y2="200"/>
    <line x1="360" y1="0" x2="360" y2="200"/><line x1="380" y1="0" x2="380" y2="200"/>
    <line x1="400" y1="0" x2="400" y2="200"/><line x1="420" y1="0" x2="420" y2="200"/>
    <line x1="440" y1="0" x2="440" y2="200"/><line x1="460" y1="0" x2="460" y2="200"/>
    <line x1="480" y1="0" x2="480" y2="200"/><line x1="500" y1="0" x2="500" y2="200"/>
    <line x1="520" y1="0" x2="520" y2="200"/><line x1="540" y1="0" x2="540" y2="200"/>
    <line x1="560" y1="0" x2="560" y2="200"/>
  </g>

  <!-- Weft shuttle lines (CSS-animated dashes) -->
  <line class="w1" x1="100" y1="10" x2="620" y2="10" stroke="#7ee787" stroke-width="1.5" stroke-linecap="round" stroke-dasharray="6 30" opacity="0.30"/>
  <line class="w2" x1="80" y1="22" x2="640" y2="22" stroke="#a5d6ff" stroke-width="1.5" stroke-linecap="round" stroke-dasharray="12 24" opacity="0.25"/>
  <line class="w3" x1="110" y1="35" x2="610" y2="35" stroke="#d2a8ff" stroke-width="1.5" stroke-linecap="round" stroke-dasharray="4 12 8 24" opacity="0.30"/>
  <line class="w4" x1="80" y1="48" x2="640" y2="48" stroke="#7ee787" stroke-width="1.5" stroke-linecap="round" stroke-dasharray="8 28" opacity="0.25"/>
  <line class="w5" x1="100" y1="60" x2="620" y2="60" stroke="#a5d6ff" stroke-width="1.5" stroke-linecap="round" stroke-dasharray="5 25" opacity="0.28"/>
  <line class="w6" x1="150" y1="72" x2="570" y2="72" stroke="#d2a8ff" stroke-width="1" stroke-linecap="round" stroke-dasharray="6 30" opacity="0.12"/>
  <line class="w7" x1="150" y1="130" x2="570" y2="130" stroke="#7ee787" stroke-width="1" stroke-linecap="round" stroke-dasharray="3 15 10 20" opacity="0.12"/>
  <line class="w8" x1="100" y1="142" x2="620" y2="142" stroke="#a5d6ff" stroke-width="1.5" stroke-linecap="round" stroke-dasharray="10 22" opacity="0.28"/>
  <line class="w9" x1="110" y1="155" x2="610" y2="155" stroke="#d2a8ff" stroke-width="1.5" stroke-linecap="round" stroke-dasharray="14 34" opacity="0.30"/>
  <line class="w10" x1="80" y1="168" x2="640" y2="168" stroke="#7ee787" stroke-width="1.5" stroke-linecap="round" stroke-dasharray="8 24" opacity="0.25"/>
  <line class="w11" x1="100" y1="180" x2="620" y2="180" stroke="#a5d6ff" stroke-width="1.5" stroke-linecap="round" stroke-dasharray="6 18 3 21" opacity="0.30"/>
  <line class="w12" x1="110" y1="192" x2="610" y2="192" stroke="#d2a8ff" stroke-width="1.5" stroke-linecap="round" stroke-dasharray="4 20" opacity="0.25"/>

  <!-- Intersection nodes (CSS-animated pulse) -->
  <path class="n1" d="M200,7.5 L202.5,10 L200,12.5 L197.5,10Z" fill="#7ee787"/>
  <path class="n2" d="M400,7.5 L402.5,10 L400,12.5 L397.5,10Z" fill="#7ee787"/>
  <circle class="n3" cx="260" cy="22" r="2" fill="#a5d6ff"/>
  <circle class="n4" cx="480" cy="22" r="2" fill="#a5d6ff"/>
  <path class="n5" d="M180,32.5 L182.5,35 L180,37.5 L177.5,35Z" fill="#d2a8ff"/>
  <path class="n6" d="M360,32.5 L362.5,35 L360,37.5 L357.5,35Z" fill="#d2a8ff"/>
  <path class="n7" d="M520,32.5 L522.5,35 L520,37.5 L517.5,35Z" fill="#d2a8ff"/>
  <circle class="n8" cx="300" cy="48" r="2" fill="#7ee787"/>
  <circle class="n9" cx="500" cy="48" r="2" fill="#7ee787"/>
  <path class="n10" d="M220,57.5 L222.5,60 L220,62.5 L217.5,60Z" fill="#a5d6ff"/>
  <path class="n11" d="M440,57.5 L442.5,60 L440,62.5 L437.5,60Z" fill="#a5d6ff"/>
  <circle class="n12" cx="240" cy="142" r="2" fill="#a5d6ff"/>
  <circle class="n13" cx="460" cy="142" r="2" fill="#a5d6ff"/>
  <path class="n14" d="M320,152.5 L322.5,155 L320,157.5 L317.5,155Z" fill="#d2a8ff"/>
  <path class="n15" d="M540,152.5 L542.5,155 L540,157.5 L537.5,155Z" fill="#d2a8ff"/>
  <circle class="n16" cx="200" cy="168" r="2" fill="#7ee787"/>
  <circle class="n17" cx="420" cy="168" r="2" fill="#7ee787"/>
  <path class="n18" d="M280,177.5 L282.5,180 L280,182.5 L277.5,180Z" fill="#a5d6ff"/>
  <path class="n19" d="M500,177.5 L502.5,180 L500,182.5 L497.5,180Z" fill="#a5d6ff"/>
  <circle class="n20" cx="340" cy="192" r="2" fill="#d2a8ff"/>
  <circle class="n21" cx="520" cy="192" r="2" fill="#d2a8ff"/>

  <!-- Title: "Open" (Courier New, paths) -->
  <g fill="#e6edf3">
    <path transform="translate(244.8,92.0) scale(0.0234,-0.0234)" d="M1128 582Q1128 414 1060.0 270.5Q992 127 872.5 47.0Q753 -33 616 -33Q413 -33 258.5 139.5Q104 312 104 582Q104 853 258.5 1025.0Q413 1197 616 1197Q753 1197 872.0 1117.0Q991 1037 1059.5 894.0Q1128 751 1128 582ZM1043 582Q1043 787 924.0 950.0Q805 1113 616 1113Q439 1113 313.5 957.5Q188 802 188 582Q188 348 319.5 199.5Q451 51 616 51Q805 51 924.0 213.5Q1043 376 1043 582Z"/>
    <path transform="translate(273.6,92.0) scale(0.0234,-0.0234)" d="M298 866V713Q373 804 459.0 850.0Q545 896 662 896Q786 896 891.0 838.0Q996 780 1053.5 676.5Q1111 573 1111 459Q1111 278 981.5 149.5Q852 21 663 21Q438 21 298 204V-302H502Q532 -302 545.0 -313.5Q558 -325 558 -344Q558 -362 545.0 -374.0Q532 -386 502 -386H101Q71 -386 58.0 -374.5Q45 -363 45 -344Q45 -325 58.0 -313.5Q71 -302 101 -302H214V781H101Q71 781 58.0 793.0Q45 805 45 824Q45 842 58.0 854.0Q71 866 101 866ZM1026 459Q1026 604 920.5 707.5Q815 811 663 811Q510 811 404.0 707.0Q298 603 298 459Q298 314 404.0 210.0Q510 106 663 106Q814 106 920.0 209.5Q1026 313 1026 459Z"/>
    <path transform="translate(302.4,92.0) scale(0.0234,-0.0234)" d="M1069 413H213Q235 250 349.5 150.5Q464 51 633 51Q727 51 830.0 82.0Q933 113 998 164Q1017 179 1031 179Q1047 179 1059.0 166.5Q1071 154 1071 137Q1071 120 1055 104Q1007 54 884.5 10.5Q762 -33 633 -33Q417 -33 272.5 108.5Q128 250 128 451Q128 634 263.5 765.0Q399 896 599 896Q805 896 938.0 761.5Q1071 627 1069 413ZM984 498Q959 637 852.5 724.0Q746 811 599 811Q452 811 346.0 725.0Q240 639 214 498Z"/>
    <path transform="translate(331.2,92.0) scale(0.0234,-0.0234)" d="M343 866V739Q431 828 502.0 862.0Q573 896 662 896Q758 896 837 855Q893 825 938.5 755.5Q984 686 984 613V84H1055Q1085 84 1098.0 72.5Q1111 61 1111 42Q1111 24 1098.0 12.0Q1085 0 1055 0H830Q799 0 786.0 12.0Q773 24 773 42Q773 61 786.0 72.5Q799 84 830 84H900V599Q900 688 835.0 749.5Q770 811 661 811Q578 811 517.0 777.5Q456 744 343 611V84H438Q468 84 481.0 72.5Q494 61 494 42Q494 24 481.0 12.0Q468 0 438 0H164Q134 0 121.0 12.0Q108 24 108 42Q108 61 121.0 72.5Q134 84 164 84H259V781H188Q158 781 145.0 793.0Q132 805 132 824Q132 842 145.0 854.0Q158 866 188 866Z"/>
  </g>

  <!-- Title: "Weft" (Courier New, paths, gradient fill) -->
  <g fill="url(#ag)">
    <path transform="translate(360.0,92.0) scale(0.0234,-0.0234)" d="M983 0H851L613 831L380 0H248L124 1086H93Q63 1086 50.0 1097.5Q37 1109 37 1128Q37 1147 50.0 1158.5Q63 1170 93 1170H405Q436 1170 449.0 1158.5Q462 1147 462 1128Q462 1109 449.0 1097.5Q436 1086 405 1086H209L320 96L547 911H676L909 96L1018 1086H821Q791 1086 778.0 1097.5Q765 1109 765 1128Q765 1147 778.0 1158.5Q791 1170 821 1170H1131Q1162 1170 1175.0 1158.5Q1188 1147 1188 1128Q1188 1109 1175.0 1097.5Q1162 1086 1131 1086H1100Z"/>
    <path transform="translate(388.8,92.0) scale(0.0234,-0.0234)" d="M1069 413H213Q235 250 349.5 150.5Q464 51 633 51Q727 51 830.0 82.0Q933 113 998 164Q1017 179 1031 179Q1047 179 1059.0 166.5Q1071 154 1071 137Q1071 120 1055 104Q1007 54 884.5 10.5Q762 -33 633 -33Q417 -33 272.5 108.5Q128 250 128 451Q128 634 263.5 765.0Q399 896 599 896Q805 896 938.0 761.5Q1071 627 1069 413ZM984 498Q959 637 852.5 724.0Q746 811 599 811Q452 811 346.0 725.0Q240 639 214 498Z"/>
    <path transform="translate(417.6,92.0) scale(0.0234,-0.0234)" d="M559 781V84H928Q958 84 971.0 72.5Q984 61 984 42Q984 24 971.0 12.0Q958 0 928 0H271Q241 0 228.0 12.0Q215 24 215 42Q215 61 228.0 72.5Q241 84 271 84H474V781H292Q262 781 249.0 793.0Q236 805 236 824Q236 842 249.0 854.0Q262 866 292 866H474V993Q474 1099 560.0 1177.0Q646 1255 788 1255Q907 1255 1042 1233Q1093 1225 1103.5 1214.0Q1114 1203 1114 1185Q1114 1167 1102.0 1155.5Q1090 1144 1070 1144Q1062 1144 1043 1147Q892 1170 788 1170Q678 1170 618.5 1116.0Q559 1062 559 993V866H952Q982 866 995.0 854.0Q1008 842 1008 823Q1008 805 995.0 793.0Q982 781 952 781Z"/>
    <path transform="translate(446.4,92.0) scale(0.0234,-0.0234)" d="M442 866H898Q928 866 941.0 854.0Q954 842 954 823Q954 805 941.0 793.0Q928 781 898 781H442V222Q442 149 500.5 100.0Q559 51 672 51Q757 51 856.0 76.5Q955 102 1010 134Q1030 147 1043 147Q1059 147 1071.0 134.5Q1083 122 1083 105Q1083 90 1070 77Q1038 44 914.5 5.5Q791 -33 678 -33Q531 -33 444.0 36.0Q357 105 357 222V781H202Q172 781 159.0 793.0Q146 805 146 824Q146 842 159.0 854.0Q172 866 202 866H357V1114Q357 1144 369.0 1157.0Q381 1170 399 1170Q418 1170 430.0 1157.0Q442 1144 442 1114Z"/>
  </g>

  <!-- Subtitle: "FIRE-AND-FORGET AGENT ORCHESTRATION" (Courier New, paths) -->
  <g fill="#7d8590">
    <path transform="translate(202.5,122.0) scale(0.0073,-0.0073)" d="M412 565V84H700Q730 84 743.0 72.5Q756 61 756 42Q756 24 743.0 12.0Q730 0 700 0H215Q185 0 172.0 12.0Q159 24 159 42Q159 61 172.0 72.5Q185 84 215 84H328V1086H215Q185 1086 172.0 1097.5Q159 1109 159 1128Q159 1147 174 1160Q185 1170 215 1170H1140V881Q1140 851 1128.0 838.0Q1116 825 1098 825Q1079 825 1067.0 838.0Q1055 851 1055 881V1086H412V649H713V744Q713 774 725.0 787.0Q737 800 756 800Q774 800 786.0 787.0Q798 774 798 744V470Q798 440 786.0 427.0Q774 414 756 414Q737 414 725.0 427.0Q713 440 713 470V565Z"/>
    <path transform="translate(211.5,122.0) scale(0.0073,-0.0073)" d="M657 1086V84H945Q975 84 988.0 72.5Q1001 61 1001 42Q1001 24 988.0 12.0Q975 0 945 0H285Q255 0 242.0 12.0Q229 24 229 42Q229 61 242.0 72.5Q255 84 285 84H573V1086H285Q255 1086 242.0 1097.5Q229 1109 229 1128Q229 1147 242.0 1158.5Q255 1170 285 1170H945Q975 1170 988.0 1158.5Q1001 1147 1001 1128Q1001 1109 988.0 1097.5Q975 1086 945 1086Z"/>
    <path transform="translate(220.5,122.0) scale(0.0073,-0.0073)" d="M341 522V84H496Q527 84 540.0 72.5Q553 61 553 42Q553 24 540.0 12.0Q527 0 496 0H144Q114 0 101.0 12.0Q88 24 88 42Q88 61 101.0 72.5Q114 84 144 84H257V1086H144Q114 1086 101.0 1097.5Q88 1109 88 1128Q88 1147 101.0 1158.5Q114 1170 144 1170H652Q809 1170 916.5 1070.5Q1024 971 1024 846Q1024 756 957.5 676.5Q891 597 735 544Q825 482 889.0 404.0Q953 326 1094 84H1158Q1188 84 1201.0 72.5Q1214 61 1214 42Q1214 24 1201.0 12.0Q1188 0 1158 0H1046Q890 279 804.5 374.0Q719 469 608 522ZM341 606H570Q680 606 769.5 646.0Q859 686 899.5 740.0Q940 794 940 850Q940 934 855.5 1010.0Q771 1086 650 1086H341Z"/>
    <path transform="translate(229.5,122.0) scale(0.0073,-0.0073)" d="M341 565V84H987V332Q987 362 998.5 375.0Q1010 388 1029 388Q1048 388 1059.5 375.0Q1071 362 1071 332V0H144Q114 0 101.0 12.0Q88 24 88 42Q88 61 101.0 72.5Q114 84 144 84H257V1086H144Q114 1086 101.0 1097.5Q88 1109 88 1128Q88 1147 101.0 1158.5Q114 1170 144 1170H1027V881Q1027 851 1015.5 838.0Q1004 825 985 825Q966 825 954.5 838.0Q943 851 943 881V1086H341V649H642V744Q642 774 654.0 787.0Q666 800 685 800Q703 800 715.0 787.0Q727 774 727 744V470Q727 440 715.0 427.0Q703 414 685 414Q666 414 654.0 427.0Q642 440 642 470V565Z"/>
    <path transform="translate(238.5,122.0) scale(0.0073,-0.0073)" d="M1043 639V519H186V639Z"/>
    <path transform="translate(247.5,122.0) scale(0.0073,-0.0073)" d="M891 391H339L226 84H387Q417 84 430.0 72.5Q443 61 443 42Q443 24 430.0 12.0Q417 0 387 0H73Q43 0 30.0 12.0Q17 24 17 42Q17 61 30.0 72.5Q43 84 73 84H138L509 1086H261Q231 1086 218.0 1097.5Q205 1109 205 1128Q205 1147 218.0 1158.5Q231 1170 261 1170H684L1094 84H1159Q1189 84 1202.0 72.5Q1215 61 1215 42Q1215 24 1202.0 12.0Q1189 0 1159 0H846Q815 0 802.0 12.0Q789 24 789 42Q789 61 802.0 72.5Q815 84 846 84H1006ZM859 475 627 1086H596L371 475Z"/>
    <path transform="translate(256.5,122.0) scale(0.0073,-0.0073)" d="M1026 0H918L299 1047V84H454Q485 84 498.0 72.5Q511 61 511 42Q511 24 498.0 12.0Q485 0 454 0H145Q114 0 101.0 12.0Q88 24 88 42Q88 61 101.0 72.5Q114 84 145 84H215V1086H102Q72 1086 59.0 1097.5Q46 1109 46 1128Q46 1147 59.0 1158.5Q72 1170 102 1170H322L942 121V1086H787Q757 1086 744.0 1097.5Q731 1109 731 1128Q731 1147 743.5 1158.5Q756 1170 787 1170H1097Q1127 1170 1140.0 1158.5Q1153 1147 1153 1128Q1153 1109 1140.0 1097.5Q1127 1086 1097 1086H1026Z"/>
    <path transform="translate(265.5,122.0) scale(0.0073,-0.0073)" d="M285 84V1086H214Q184 1086 171.0 1097.5Q158 1109 158 1128Q158 1147 171.0 1158.5Q184 1170 214 1170H666Q772 1170 859.5 1126.0Q947 1082 993 1026Q1072 931 1113 825Q1142 748 1142 643V527Q1142 398 1085.0 277.0Q1028 156 895 66Q796 0 666 0H214Q184 0 171.0 12.0Q158 24 158 42Q158 61 171.0 72.5Q184 84 214 84ZM369 84H674Q780 84 872.5 153.0Q965 222 1011.5 318.5Q1058 415 1058 509V661Q1058 739 1033 800Q997 889 931 969Q895 1013 825.0 1049.5Q755 1086 674 1086H369Z"/>
    <path transform="translate(274.5,122.0) scale(0.0073,-0.0073)" d="M1043 639V519H186V639Z"/>
    <path transform="translate(283.5,122.0) scale(0.0073,-0.0073)" d="M412 565V84H700Q730 84 743.0 72.5Q756 61 756 42Q756 24 743.0 12.0Q730 0 700 0H215Q185 0 172.0 12.0Q159 24 159 42Q159 61 172.0 72.5Q185 84 215 84H328V1086H215Q185 1086 172.0 1097.5Q159 1109 159 1128Q159 1147 174 1160Q185 1170 215 1170H1140V881Q1140 851 1128.0 838.0Q1116 825 1098 825Q1079 825 1067.0 838.0Q1055 851 1055 881V1086H412V649H713V744Q713 774 725.0 787.0Q737 800 756 800Q774 800 786.0 787.0Q798 774 798 744V470Q798 440 786.0 427.0Q774 414 756 414Q737 414 725.0 427.0Q713 440 713 470V565Z"/>
    <path transform="translate(292.5,122.0) scale(0.0073,-0.0073)" d="M1128 582Q1128 414 1060.0 270.5Q992 127 872.5 47.0Q753 -33 616 -33Q413 -33 258.5 139.5Q104 312 104 582Q104 853 258.5 1025.0Q413 1197 616 1197Q753 1197 872.0 1117.0Q991 1037 1059.5 894.0Q1128 751 1128 582ZM1043 582Q1043 787 924.0 950.0Q805 1113 616 1113Q439 1113 313.5 957.5Q188 802 188 582Q188 348 319.5 199.5Q451 51 616 51Q805 51 924.0 213.5Q1043 376 1043 582Z"/>
    <path transform="translate(301.5,122.0) scale(0.0073,-0.0073)" d="M341 522V84H496Q527 84 540.0 72.5Q553 61 553 42Q553 24 540.0 12.0Q527 0 496 0H144Q114 0 101.0 12.0Q88 24 88 42Q88 61 101.0 72.5Q114 84 144 84H257V1086H144Q114 1086 101.0 1097.5Q88 1109 88 1128Q88 1147 101.0 1158.5Q114 1170 144 1170H652Q809 1170 916.5 1070.5Q1024 971 1024 846Q1024 756 957.5 676.5Q891 597 735 544Q825 482 889.0 404.0Q953 326 1094 84H1158Q1188 84 1201.0 72.5Q1214 61 1214 42Q1214 24 1201.0 12.0Q1188 0 1158 0H1046Q890 279 804.5 374.0Q719 469 608 522ZM341 606H570Q680 606 769.5 646.0Q859 686 899.5 740.0Q940 794 940 850Q940 934 855.5 1010.0Q771 1086 650 1086H341Z"/>
    <path transform="translate(310.5,122.0) scale(0.0073,-0.0073)" d="M1071 434V74Q975 21 879.5 -6.0Q784 -33 689 -33Q554 -33 451.5 7.0Q349 47 278.0 119.0Q207 191 167.5 280.0Q128 369 128 506V660Q128 798 196.5 928.5Q265 1059 384.0 1128.0Q503 1197 643 1197Q846 1197 986 1086Q986 1135 989.5 1145.0Q993 1155 1004.0 1162.5Q1015 1170 1029 1170Q1047 1170 1059.0 1157.0Q1071 1144 1071 1114V924Q1071 893 1059.0 880.5Q1047 868 1029 868Q1012 868 1000.5 879.5Q989 891 988 920Q982 1005 877.5 1059.0Q773 1113 650 1113Q534 1113 440.5 1062.5Q347 1012 266 870Q212 777 212 659V506Q212 297 340.0 174.0Q468 51 693 51Q769 51 834.0 67.0Q899 83 986 123V434H697Q667 434 654.0 445.5Q641 457 641 476Q641 495 654.0 507.0Q667 519 697 519L1101 518Q1131 518 1144.0 506.5Q1157 495 1157 476Q1157 463 1149.0 452.0Q1141 441 1131.0 437.5Q1121 434 1071 434Z"/>
    <path transform="translate(319.5,122.0) scale(0.0073,-0.0073)" d="M341 565V84H987V332Q987 362 998.5 375.0Q1010 388 1029 388Q1048 388 1059.5 375.0Q1071 362 1071 332V0H144Q114 0 101.0 12.0Q88 24 88 42Q88 61 101.0 72.5Q114 84 144 84H257V1086H144Q114 1086 101.0 1097.5Q88 1109 88 1128Q88 1147 101.0 1158.5Q114 1170 144 1170H1027V881Q1027 851 1015.5 838.0Q1004 825 985 825Q966 825 954.5 838.0Q943 851 943 881V1086H341V649H642V744Q642 774 654.0 787.0Q666 800 685 800Q703 800 715.0 787.0Q727 774 727 744V470Q727 440 715.0 427.0Q703 414 685 414Q666 414 654.0 427.0Q642 440 642 470V565Z"/>
    <path transform="translate(328.5,122.0) scale(0.0073,-0.0073)" d="M656 1086V84H874Q904 84 917.0 72.5Q930 61 930 42Q930 24 917.0 12.0Q904 0 874 0H353Q323 0 310.0 12.0Q297 24 297 42Q297 61 310.0 72.5Q323 84 353 84H571V1086H227V795Q227 764 215.5 751.0Q204 738 185 738Q167 738 155.0 751.0Q143 764 143 795V1170H1084V795Q1084 764 1072.5 751.0Q1061 738 1042 738Q1023 738 1011.5 751.0Q1000 764 1000 795V1086Z"/>
    <path transform="translate(346.5,122.0) scale(0.0073,-0.0073)" d="M891 391H339L226 84H387Q417 84 430.0 72.5Q443 61 443 42Q443 24 430.0 12.0Q417 0 387 0H73Q43 0 30.0 12.0Q17 24 17 42Q17 61 30.0 72.5Q43 84 73 84H138L509 1086H261Q231 1086 218.0 1097.5Q205 1109 205 1128Q205 1147 218.0 1158.5Q231 1170 261 1170H684L1094 84H1159Q1189 84 1202.0 72.5Q1215 61 1215 42Q1215 24 1202.0 12.0Q1189 0 1159 0H846Q815 0 802.0 12.0Q789 24 789 42Q789 61 802.0 72.5Q815 84 846 84H1006ZM859 475 627 1086H596L371 475Z"/>
    <path transform="translate(355.5,122.0) scale(0.0073,-0.0073)" d="M1071 434V74Q975 21 879.5 -6.0Q784 -33 689 -33Q554 -33 451.5 7.0Q349 47 278.0 119.0Q207 191 167.5 280.0Q128 369 128 506V660Q128 798 196.5 928.5Q265 1059 384.0 1128.0Q503 1197 643 1197Q846 1197 986 1086Q986 1135 989.5 1145.0Q993 1155 1004.0 1162.5Q1015 1170 1029 1170Q1047 1170 1059.0 1157.0Q1071 1144 1071 1114V924Q1071 893 1059.0 880.5Q1047 868 1029 868Q1012 868 1000.5 879.5Q989 891 988 920Q982 1005 877.5 1059.0Q773 1113 650 1113Q534 1113 440.5 1062.5Q347 1012 266 870Q212 777 212 659V506Q212 297 340.0 174.0Q468 51 693 51Q769 51 834.0 67.0Q899 83 986 123V434H697Q667 434 654.0 445.5Q641 457 641 476Q641 495 654.0 507.0Q667 519 697 519L1101 518Q1131 518 1144.0 506.5Q1157 495 1157 476Q1157 463 1149.0 452.0Q1141 441 1131.0 437.5Q1121 434 1071 434Z"/>
    <path transform="translate(364.5,122.0) scale(0.0073,-0.0073)" d="M341 565V84H987V332Q987 362 998.5 375.0Q1010 388 1029 388Q1048 388 1059.5 375.0Q1071 362 1071 332V0H144Q114 0 101.0 12.0Q88 24 88 42Q88 61 101.0 72.5Q114 84 144 84H257V1086H144Q114 1086 101.0 1097.5Q88 1109 88 1128Q88 1147 101.0 1158.5Q114 1170 144 1170H1027V881Q1027 851 1015.5 838.0Q1004 825 985 825Q966 825 954.5 838.0Q943 851 943 881V1086H341V649H642V744Q642 774 654.0 787.0Q666 800 685 800Q703 800 715.0 787.0Q727 774 727 744V470Q727 440 715.0 427.0Q703 414 685 414Q666 414 654.0 427.0Q642 440 642 470V565Z"/>
    <path transform="translate(373.5,122.0) scale(0.0073,-0.0073)" d="M1026 0H918L299 1047V84H454Q485 84 498.0 72.5Q511 61 511 42Q511 24 498.0 12.0Q485 0 454 0H145Q114 0 101.0 12.0Q88 24 88 42Q88 61 101.0 72.5Q114 84 145 84H215V1086H102Q72 1086 59.0 1097.5Q46 1109 46 1128Q46 1147 59.0 1158.5Q72 1170 102 1170H322L942 121V1086H787Q757 1086 744.0 1097.5Q731 1109 731 1128Q731 1147 743.5 1158.5Q756 1170 787 1170H1097Q1127 1170 1140.0 1158.5Q1153 1147 1153 1128Q1153 1109 1140.0 1097.5Q1127 1086 1097 1086H1026Z"/>
    <path transform="translate(382.5,122.0) scale(0.0073,-0.0073)" d="M656 1086V84H874Q904 84 917.0 72.5Q930 61 930 42Q930 24 917.0 12.0Q904 0 874 0H353Q323 0 310.0 12.0Q297 24 297 42Q297 61 310.0 72.5Q323 84 353 84H571V1086H227V795Q227 764 215.5 751.0Q204 738 185 738Q167 738 155.0 751.0Q143 764 143 795V1170H1084V795Q1084 764 1072.5 751.0Q1061 738 1042 738Q1023 738 1011.5 751.0Q1000 764 1000 795V1086Z"/>
    <path transform="translate(400.5,122.0) scale(0.0073,-0.0073)" d="M1128 582Q1128 414 1060.0 270.5Q992 127 872.5 47.0Q753 -33 616 -33Q413 -33 258.5 139.5Q104 312 104 582Q104 853 258.5 1025.0Q413 1197 616 1197Q753 1197 872.0 1117.0Q991 1037 1059.5 894.0Q1128 751 1128 582ZM1043 582Q1043 787 924.0 950.0Q805 1113 616 1113Q439 1113 313.5 957.5Q188 802 188 582Q188 348 319.5 199.5Q451 51 616 51Q805 51 924.0 213.5Q1043 376 1043 582Z"/>
    <path transform="translate(409.5,122.0) scale(0.0073,-0.0073)" d="M341 522V84H496Q527 84 540.0 72.5Q553 61 553 42Q553 24 540.0 12.0Q527 0 496 0H144Q114 0 101.0 12.0Q88 24 88 42Q88 61 101.0 72.5Q114 84 144 84H257V1086H144Q114 1086 101.0 1097.5Q88 1109 88 1128Q88 1147 101.0 1158.5Q114 1170 144 1170H652Q809 1170 916.5 1070.5Q1024 971 1024 846Q1024 756 957.5 676.5Q891 597 735 544Q825 482 889.0 404.0Q953 326 1094 84H1158Q1188 84 1201.0 72.5Q1214 61 1214 42Q1214 24 1201.0 12.0Q1188 0 1158 0H1046Q890 279 804.5 374.0Q719 469 608 522ZM341 606H570Q680 606 769.5 646.0Q859 686 899.5 740.0Q940 794 940 850Q940 934 855.5 1010.0Q771 1086 650 1086H341Z"/>
    <path transform="translate(418.5,122.0) scale(0.0073,-0.0073)" d="M984 1055V1114Q984 1144 995.5 1157.0Q1007 1170 1026 1170Q1045 1170 1056.5 1157.0Q1068 1144 1068 1114V881Q1068 850 1056.5 837.0Q1045 824 1026 824Q1009 824 997.5 836.0Q986 848 984 875Q979 959 893 1024Q777 1113 629 1113Q532 1113 446 1070Q382 1039 344 994Q278 916 239 821Q211 751 211 663V516Q211 328 347.0 189.5Q483 51 663 51Q771 51 856.5 98.0Q942 145 1022 240Q1039 261 1060 261Q1078 261 1089.0 250.0Q1100 239 1100 222Q1100 199 1057 152Q975 60 872.5 13.5Q770 -33 665 -33Q574 -33 480 2Q408 29 361.0 65.0Q314 101 245.5 186.5Q177 272 152.0 344.5Q127 417 127 504V675Q127 799 193.5 928.5Q260 1058 375.5 1127.5Q491 1197 626 1197Q834 1197 984 1055Z"/>
    <path transform="translate(427.5,122.0) scale(0.0073,-0.0073)" d="M899 566H342V84H455Q485 84 498.0 72.5Q511 61 511 42Q511 24 498.0 12.0Q485 0 455 0H163Q133 0 120.0 12.0Q107 24 107 42Q107 61 120.0 72.5Q133 84 163 84H258V1086H206Q175 1086 162.0 1097.5Q149 1109 149 1128Q149 1147 162.0 1158.5Q175 1170 206 1170H455Q485 1170 498.0 1158.5Q511 1147 511 1128Q511 1109 498.0 1097.5Q485 1086 455 1086H342V650H899V1086H787Q757 1086 744.0 1097.5Q731 1109 731 1128Q731 1147 743.5 1158.5Q756 1170 787 1170H1036Q1067 1170 1080.0 1158.5Q1093 1147 1093 1128Q1093 1109 1080.0 1097.5Q1067 1086 1036 1086H984V84H1079Q1109 84 1122.0 72.5Q1135 61 1135 42Q1135 24 1122.0 12.0Q1109 0 1079 0H787Q757 0 744.0 12.0Q731 24 731 42Q731 61 743.5 72.5Q756 84 787 84H899Z"/>
    <path transform="translate(436.5,122.0) scale(0.0073,-0.0073)" d="M341 565V84H987V332Q987 362 998.5 375.0Q1010 388 1029 388Q1048 388 1059.5 375.0Q1071 362 1071 332V0H144Q114 0 101.0 12.0Q88 24 88 42Q88 61 101.0 72.5Q114 84 144 84H257V1086H144Q114 1086 101.0 1097.5Q88 1109 88 1128Q88 1147 101.0 1158.5Q114 1170 144 1170H1027V881Q1027 851 1015.5 838.0Q1004 825 985 825Q966 825 954.5 838.0Q943 851 943 881V1086H341V649H642V744Q642 774 654.0 787.0Q666 800 685 800Q703 800 715.0 787.0Q727 774 727 744V470Q727 440 715.0 427.0Q703 414 685 414Q666 414 654.0 427.0Q642 440 642 470V565Z"/>
    <path transform="translate(445.5,122.0) scale(0.0073,-0.0073)" d="M915 1086V1114Q915 1144 926.5 1157.0Q938 1170 957 1170Q976 1170 987.5 1157.0Q999 1144 999 1114V900Q999 870 987.5 857.0Q976 844 957 844Q939 844 927.5 856.0Q916 868 915 895Q910 979 828.5 1046.0Q747 1113 615 1113Q476 1113 394.0 1041.5Q312 970 312 873Q312 823 335.0 782.0Q358 741 396.0 715.5Q434 690 482.0 674.5Q530 659 632 642Q803 614 868 585Q955 546 999.5 477.0Q1044 408 1044 314Q1044 170 929.0 68.5Q814 -33 619 -33Q400 -33 269 104V56Q269 26 257.5 13.0Q246 0 227 0Q209 0 197.0 13.0Q185 26 185 56V288Q185 319 196.5 332.0Q208 345 227 345Q245 345 256.5 333.0Q268 321 269 294Q274 202 367.5 126.5Q461 51 619 51Q777 51 868.5 130.0Q960 209 960 317Q960 383 925.0 434.5Q890 486 821 516Q773 537 621 563Q412 598 320 670Q228 742 228 875Q228 1007 333.5 1102.0Q439 1197 612 1197Q788 1197 915 1086Z"/>
    <path transform="translate(454.5,122.0) scale(0.0073,-0.0073)" d="M656 1086V84H874Q904 84 917.0 72.5Q930 61 930 42Q930 24 917.0 12.0Q904 0 874 0H353Q323 0 310.0 12.0Q297 24 297 42Q297 61 310.0 72.5Q323 84 353 84H571V1086H227V795Q227 764 215.5 751.0Q204 738 185 738Q167 738 155.0 751.0Q143 764 143 795V1170H1084V795Q1084 764 1072.5 751.0Q1061 738 1042 738Q1023 738 1011.5 751.0Q1000 764 1000 795V1086Z"/>
    <path transform="translate(463.5,122.0) scale(0.0073,-0.0073)" d="M341 522V84H496Q527 84 540.0 72.5Q553 61 553 42Q553 24 540.0 12.0Q527 0 496 0H144Q114 0 101.0 12.0Q88 24 88 42Q88 61 101.0 72.5Q114 84 144 84H257V1086H144Q114 1086 101.0 1097.5Q88 1109 88 1128Q88 1147 101.0 1158.5Q114 1170 144 1170H652Q809 1170 916.5 1070.5Q1024 971 1024 846Q1024 756 957.5 676.5Q891 597 735 544Q825 482 889.0 404.0Q953 326 1094 84H1158Q1188 84 1201.0 72.5Q1214 61 1214 42Q1214 24 1201.0 12.0Q1188 0 1158 0H1046Q890 279 804.5 374.0Q719 469 608 522ZM341 606H570Q680 606 769.5 646.0Q859 686 899.5 740.0Q940 794 940 850Q940 934 855.5 1010.0Q771 1086 650 1086H341Z"/>
    <path transform="translate(472.5,122.0) scale(0.0073,-0.0073)" d="M891 391H339L226 84H387Q417 84 430.0 72.5Q443 61 443 42Q443 24 430.0 12.0Q417 0 387 0H73Q43 0 30.0 12.0Q17 24 17 42Q17 61 30.0 72.5Q43 84 73 84H138L509 1086H261Q231 1086 218.0 1097.5Q205 1109 205 1128Q205 1147 218.0 1158.5Q231 1170 261 1170H684L1094 84H1159Q1189 84 1202.0 72.5Q1215 61 1215 42Q1215 24 1202.0 12.0Q1189 0 1159 0H846Q815 0 802.0 12.0Q789 24 789 42Q789 61 802.0 72.5Q815 84 846 84H1006ZM859 475 627 1086H596L371 475Z"/>
    <path transform="translate(481.5,122.0) scale(0.0073,-0.0073)" d="M656 1086V84H874Q904 84 917.0 72.5Q930 61 930 42Q930 24 917.0 12.0Q904 0 874 0H353Q323 0 310.0 12.0Q297 24 297 42Q297 61 310.0 72.5Q323 84 353 84H571V1086H227V795Q227 764 215.5 751.0Q204 738 185 738Q167 738 155.0 751.0Q143 764 143 795V1170H1084V795Q1084 764 1072.5 751.0Q1061 738 1042 738Q1023 738 1011.5 751.0Q1000 764 1000 795V1086Z"/>
    <path transform="translate(490.5,122.0) scale(0.0073,-0.0073)" d="M657 1086V84H945Q975 84 988.0 72.5Q1001 61 1001 42Q1001 24 988.0 12.0Q975 0 945 0H285Q255 0 242.0 12.0Q229 24 229 42Q229 61 242.0 72.5Q255 84 285 84H573V1086H285Q255 1086 242.0 1097.5Q229 1109 229 1128Q229 1147 242.0 1158.5Q255 1170 285 1170H945Q975 1170 988.0 1158.5Q1001 1147 1001 1128Q1001 1109 988.0 1097.5Q975 1086 945 1086Z"/>
    <path transform="translate(499.5,122.0) scale(0.0073,-0.0073)" d="M1128 582Q1128 414 1060.0 270.5Q992 127 872.5 47.0Q753 -33 616 -33Q413 -33 258.5 139.5Q104 312 104 582Q104 853 258.5 1025.0Q413 1197 616 1197Q753 1197 872.0 1117.0Q991 1037 1059.5 894.0Q1128 751 1128 582ZM1043 582Q1043 787 924.0 950.0Q805 1113 616 1113Q439 1113 313.5 957.5Q188 802 188 582Q188 348 319.5 199.5Q451 51 616 51Q805 51 924.0 213.5Q1043 376 1043 582Z"/>
    <path transform="translate(508.5,122.0) scale(0.0073,-0.0073)" d="M1026 0H918L299 1047V84H454Q485 84 498.0 72.5Q511 61 511 42Q511 24 498.0 12.0Q485 0 454 0H145Q114 0 101.0 12.0Q88 24 88 42Q88 61 101.0 72.5Q114 84 145 84H215V1086H102Q72 1086 59.0 1097.5Q46 1109 46 1128Q46 1147 59.0 1158.5Q72 1170 102 1170H322L942 121V1086H787Q757 1086 744.0 1097.5Q731 1109 731 1128Q731 1147 743.5 1158.5Q756 1170 787 1170H1097Q1127 1170 1140.0 1158.5Q1153 1147 1153 1128Q1153 1109 1140.0 1097.5Q1127 1086 1097 1086H1026Z"/>
  </g>
</svg>
