<svg viewBox="0 0 720 120" width="720" height="120" xmlns="http://www.w3.org/2000/svg">
  <defs>
    <linearGradient id="wg" gradientUnits="userSpaceOnUse" x1="120" y1="0" x2="600" y2="0">
      <stop offset="0%" stop-color="#7ee787" stop-opacity="0"/>
      <stop offset="15%" stop-color="#7ee787"/>
      <stop offset="50%" stop-color="#a5d6ff"/>
      <stop offset="85%" stop-color="#d2a8ff"/>
      <stop offset="100%" stop-color="#d2a8ff" stop-opacity="0"/>
    </linearGradient>
    <linearGradient id="ag" gradientUnits="userSpaceOnUse" x1="340" y1="58" x2="470" y2="28">
      <stop offset="0%" stop-color="#7ee787"/>
      <stop offset="50%" stop-color="#a5d6ff"/>
      <stop offset="100%" stop-color="#d2a8ff"/>
    </linearGradient>
  </defs>
  <!-- Warp lines (vertical threads) -->
  <g opacity="0.07" stroke="#e6edf3" stroke-width="1">
    <line x1="160" y1="0" x2="160" y2="120"/><line x1="180" y1="0" x2="180" y2="120"/>
    <line x1="200" y1="0" x2="200" y2="120"/><line x1="220" y1="0" x2="220" y2="120"/>
    <line x1="240" y1="0" x2="240" y2="120"/><line x1="260" y1="0" x2="260" y2="120"/>
    <line x1="280" y1="0" x2="280" y2="120"/><line x1="300" y1="0" x2="300" y2="120"/>
    <line x1="320" y1="0" x2="320" y2="120"/><line x1="340" y1="0" x2="340" y2="120"/>
    <line x1="360" y1="0" x2="360" y2="120"/><line x1="380" y1="0" x2="380" y2="120"/>
    <line x1="400" y1="0" x2="400" y2="120"/><line x1="420" y1="0" x2="420" y2="120"/>
    <line x1="440" y1="0" x2="440" y2="120"/><line x1="460" y1="0" x2="460" y2="120"/>
    <line x1="480" y1="0" x2="480" y2="120"/><line x1="500" y1="0" x2="500" y2="120"/>
    <line x1="520" y1="0" x2="520" y2="120"/><line x1="540" y1="0" x2="540" y2="120"/>
    <line x1="560" y1="0" x2="560" y2="120"/>
  </g>
  <!-- Weft lines (horizontal threads) -->
  <g opacity="0.12">
    <rect x="120" y="15" width="480" height="1" fill="url(#wg)"/>
    <rect x="150" y="33" width="420" height="1" fill="url(#wg)"/>
    <rect x="170" y="65" width="380" height="1" fill="url(#wg)"/>
    <rect x="150" y="88" width="420" height="1" fill="url(#wg)"/>
    <rect x="120" y="105" width="480" height="1" fill="url(#wg)"/>
  </g>
  <!-- Title -->
  <text x="360" y="55" text-anchor="middle" font-family="ui-monospace,SFMono-Regular,'SF Mono',Menlo,Consolas,monospace" font-size="42" font-weight="700" letter-spacing="-1"><tspan fill="#e6edf3">Open</tspan><tspan fill="url(#ag)">Weft</tspan></text>
  <!-- Subtitle -->
  <text x="360" y="82" text-anchor="middle" font-family="-apple-system,BlinkMacSystemFont,'Segoe UI',Helvetica,Arial,sans-serif" font-size="14" fill="#7d8590" letter-spacing="2">FIRE-AND-FORGET AGENT ORCHESTRATION</text>
</svg>
